M48
INCH
T01C0.0191
T02C0.0276
T03C0.0354
T04C0.038
T05C0.0394
T06C0.046
T07C0.046
T08C0.0472
T09C0.14
%
T01
X+022812Y+008687
X+023437Y+009437
X+024937Y+010937
X+026437Y+008687
X+025687Y+007687
X+021437Y+004687
X+021937Y+013187
X+015562Y+015937
X+030187Y+022687
X+031562Y+024687
T02
X+013437Y+026687
X+013437Y+027687
X+013437Y+028687
X+018187Y+018437
X+018187Y+017437
X+018187Y+016437
X+018187Y+015187
X+018187Y+014187
X+018187Y+013187
X+018187Y+011937
X+018187Y+010937
X+018187Y+009937
X+029437Y+012937
X+029437Y+013937
X+029437Y+014937
T03
X+013937Y+030687
X+013937Y+032687
X+017437Y+029187
X+017437Y+028187
X+019437Y+028187
X+019437Y+029187
X+019437Y+030187
X+022437Y+030187
X+022437Y+029187
X+022437Y+028187
X+022437Y+027187
X+019437Y+027187
X+017437Y+025937
X+017437Y+024937
X+016187Y+022437
X+014937Y+021937
X+014937Y+020937
X+014937Y+019937
X+016187Y+020437
X+014937Y+022937
X+011937Y+022937
X+011937Y+021937
X+011937Y+020937
X+011937Y+019937
X+010687Y+020437
X+010687Y+022437
X+007687Y+023437
X+006187Y+023437
X+006187Y+019461
X+007687Y+019461
X+010687Y+017437
X+011937Y+017437
X+011937Y+016437
X+011937Y+015437
X+011937Y+014437
X+011937Y+013437
X+011937Y+012437
X+011937Y+011437
X+010687Y+011437
X+010687Y+013437
X+010687Y+015437
X+014937Y+015437
X+014937Y+014437
X+014937Y+013437
X+014937Y+012437
X+014937Y+011437
X+016437Y+008187
X+016437Y+007187
X+016437Y+006187
X+016437Y+005187
X+015187Y+005687
X+015187Y+007687
X+012187Y+007937
X+012187Y+005937
X+009187Y+005687
X+009187Y+007687
X+019437Y+007187
X+019437Y+006187
X+019437Y+005187
X+020687Y+005687
X+022187Y+005687
X+022187Y+007687
X+020687Y+007687
X+019437Y+008187
X+021437Y+009187
X+021437Y+010187
X+026437Y+007687
X+026437Y+005687
X+027687Y+011937
X+027687Y+015913
X+026437Y+018187
X+026437Y+019187
X+026437Y+020187
X+026437Y+021187
X+026437Y+022187
X+026437Y+023187
X+026437Y+024187
X+026437Y+025187
X+026437Y+026187
X+026437Y+027187
X+026437Y+028187
X+026437Y+029187
X+026437Y+030187
X+026437Y+031187
X+026437Y+032187
X+032437Y+032187
X+032437Y+031187
X+032437Y+030187
X+032437Y+029187
X+032437Y+028187
X+032437Y+027187
X+032437Y+026187
X+032437Y+025187
X+032437Y+024187
X+032437Y+023187
X+032437Y+022187
X+032437Y+021187
X+032437Y+020187
X+032437Y+019187
X+032437Y+018187
X+020187Y+020437
X+019187Y+021437
X+020187Y+022437
X+016187Y+017437
X+014937Y+017437
X+014937Y+016437
X+016187Y+015437
T04
X+024187Y+026687
X+024187Y+024937
X+023437Y+023437
X+021937Y+023437
X+020937Y+024937
X+017687Y+023437
X+014937Y+025687
X+011437Y+025687
X+009187Y+023437
X+009187Y+019437
X+009187Y+018437
X+006937Y+017437
X+006937Y+015187
X+006937Y+012937
X+006937Y+010687
X+006937Y+008437
X+009187Y+009437
X+010687Y+008687
X+013687Y+008687
X+016187Y+009437
X+016187Y+013437
X+020437Y+011937
X+021937Y+011937
X+023437Y+011937
X+024937Y+011937
X+026437Y+011937
X+025687Y+010437
X+024937Y+008687
X+023687Y+008687
X+023687Y+004687
X+024937Y+004687
X+027937Y+004687
X+029437Y+004687
X+030937Y+004687
X+030937Y+008687
X+029437Y+008687
X+027937Y+008687
X+029437Y+010437
X+030937Y+011937
X+032437Y+011937
X+032437Y+015937
X+030937Y+015937
X+026437Y+015937
X+024937Y+015937
X+023437Y+015937
X+021937Y+015937
X+020437Y+015937
X+020937Y+017437
X+021937Y+019437
X+023437Y+019437
X+024937Y+019437
X+024937Y+023437
X+024187Y+030687
X+024187Y+032687
X+020937Y+032687
X+014937Y+029687
X+011437Y+029687
X+004687Y+023437
X+004687Y+019437
X+009187Y+014437
X+009187Y+013437
X+010687Y+004687
X+013687Y+004687
X+017687Y+019437
T05
X+017937Y+032687
X+016953Y+032687
X+005187Y+027937
X+005187Y+026953
X+035187Y+028187
X+035187Y+029171
X+035187Y+025156
X+035187Y+024171
X+035187Y+023187
X+035187Y+019171
X+035187Y+018187
X+035187Y+015406
X+035187Y+014421
X+035187Y+013437
X+035187Y+009937
X+035187Y+008953
X+035187Y+007968
T06
X+007437Y+030437
X+009437Y+024437
T07
X+007437Y+024437
X+009437Y+030437
T08
X+008437Y+032687
X+009437Y+032687
X+010437Y+032687
T09
X+005437Y+032437
X+005437Y+005437
X+034937Y+005437
X+034937Y+032437
T00
M30
