G04 DipTrace 3.3.1.3*
G04 Top.gbr*
%MOIN*%
G04 #@! TF.FileFunction,Copper,L1,Top*
G04 #@! TF.Part,Single*
%ADD11C,0.005512*%
G04 #@! TA.AperFunction,Conductor*
%ADD13C,0.05*%
%ADD14C,0.025*%
G04 #@! TA.AperFunction,ComponentPad*
%ADD16C,0.062992*%
%ADD17R,0.062992X0.062992*%
%ADD18R,0.059055X0.059055*%
%ADD19C,0.059055*%
%ADD20C,0.062992*%
%ADD21R,0.070866X0.070866*%
%ADD22C,0.070866*%
%ADD23C,0.06*%
%ADD24C,0.06*%
%ADD25C,0.07*%
%ADD26C,0.07*%
G04 #@! TA.AperFunction,ViaPad*
%ADD27C,0.04*%
%FSLAX26Y26*%
G04*
G70*
G90*
G75*
G01*
G04 Top*
%LPD*%
X1043700Y3268700D2*
D13*
X1118700Y3343700D1*
X1404444D1*
X1793700D1*
X3306200D1*
X3356200Y3293700D1*
Y3181200D1*
X3593700Y2943700D1*
Y1818700D1*
Y1704176D1*
Y1368700D1*
X3568700Y1343700D1*
X3518700D1*
Y1818700D2*
X3593700D1*
X1793700Y3268700D2*
Y3343700D1*
X1393700Y3268700D2*
Y3332956D1*
X1404444Y3343700D1*
X1043700Y3268700D2*
Y3068700D1*
X1143700Y2968700D1*
X2643700Y1818700D2*
X2743700Y1718700D1*
X3579176D1*
X3593700Y1704176D1*
X1818700Y993700D2*
D14*
X1943700Y868700D1*
X2281200D1*
X1818700Y993700D2*
X1359640D1*
X843700D1*
X693700Y843700D1*
X1193700Y1243700D2*
X1359640Y1077760D1*
Y993700D1*
X3243700Y3218700D2*
X3306200Y3156200D1*
Y2956200D1*
X3443700Y2818700D1*
X3518700D1*
X918700Y1343700D2*
X1018700Y1443700D1*
X1193700D1*
X1818700Y1318700D2*
X2193700D1*
X1818700D2*
X1743700Y1393700D1*
X1243700D1*
X1193700Y1343700D1*
X1143700Y1293700D1*
X693700D1*
Y1518700D2*
X818700Y1643700D1*
X1193700D1*
X1556200Y1593700D2*
X1406200D1*
X1356200Y1643700D1*
X1193700D1*
X1493700D2*
X1818700D1*
X1868700Y1593700D1*
X2043700D1*
X1493700Y1643700D2*
X1443700Y1693700D1*
X743700D1*
X693700Y1743700D1*
X943700Y3268700D2*
D13*
Y3043700D1*
X1493700Y2293700D2*
D14*
X1881200D1*
X1931200Y2343700D1*
X2193700D1*
X1343700Y2868700D2*
X1143700D1*
X918700D1*
X843700Y2943700D1*
Y3268700D1*
X1143700Y2568700D2*
Y2868700D1*
X1343700Y2768700D2*
X1393700D1*
X1493700Y2668700D1*
Y2568700D1*
X1193700Y2093700D2*
X1131200Y2156200D1*
X779491D1*
X618700D1*
X531200D1*
X468700Y2093700D1*
Y1943700D1*
X768700Y1946062D2*
Y2145409D1*
X779491Y2156200D1*
X618700Y2343700D2*
Y2156200D1*
X918700Y2343700D2*
X1131200D1*
X1193700Y2406200D1*
X1706200D1*
X1768700Y2343700D1*
X1193700Y2193700D2*
X1131200Y2256200D1*
Y2343700D1*
X2018700Y2043700D2*
X1756200D1*
X1656200Y2143700D1*
X1418700D1*
X1268700Y2293700D1*
X1193700D1*
X1068700Y1543700D2*
X1193700D1*
X918700Y1443700D2*
X1018700Y1543700D1*
X1068700D1*
X1943700Y2918700D2*
X1743700D1*
X1818700Y1743700D2*
X1906200Y1656200D1*
X2156200D1*
X2343700Y1843700D1*
Y1943700D1*
X1743700Y2818700D2*
X1843700Y2718700D1*
X1943700D1*
X2243700Y2918700D2*
X2318700D1*
X2418700Y2818700D1*
Y2668700D1*
X1218700Y793700D2*
Y881200D1*
X1281200Y943700D1*
X1368700D1*
X1618700D1*
X1368700Y868700D2*
Y943700D1*
X1618700D2*
X1581200Y906200D1*
Y781200D1*
X1643700Y718700D1*
X918700Y943700D2*
Y868700D1*
Y768700D1*
X1068700Y868700D2*
X918700D1*
X1643700Y618700D2*
X1593700Y668700D1*
X1143700D1*
X1068700Y743700D1*
Y868700D1*
X1218700Y593700D2*
Y506200D1*
X1256200Y468700D1*
X1368700D1*
X1731200D1*
X2143700D1*
X1643700Y818700D2*
X1693700D1*
X1731200Y781200D1*
Y468700D1*
X2568700Y768700D2*
X2218700D1*
X1943700Y518700D2*
X2218700D1*
X2318700D1*
X2368700Y468700D1*
X2218700Y568700D2*
Y518700D1*
X3093700Y468700D2*
X3421850Y796850D1*
X3518700D1*
X2793700Y468700D2*
X2943700D1*
X2493700D2*
X2654772D1*
X2793700D1*
X2643700Y568700D2*
Y479772D1*
X2654772Y468700D1*
X1943700Y618700D2*
X2343700D1*
X2493700Y468700D1*
X1943700Y718700D2*
X1981200Y681200D1*
X2556200D1*
X2643700Y768700D1*
X2493700Y868700D2*
X2643700D1*
Y1593700D2*
X2766338D1*
X2768700Y1591338D1*
X1818700Y1093700D2*
X2493700D1*
X3156200Y2468700D2*
X2531200D1*
X2406200Y2343700D1*
X2343700D1*
X1818700Y1418700D2*
X2268700D1*
X2418700Y1568700D1*
Y1868700D1*
X2493700Y1943700D1*
X3018700Y2268700D2*
X2568700D1*
X2493700Y2343700D1*
X1493700Y1243700D2*
X1593700Y1143700D1*
X2768700D1*
X3043700D1*
X3093700Y1193700D1*
X2768700D2*
Y1143700D1*
X2943700Y1393700D2*
X2893700D1*
X2768700Y1268700D1*
Y1193700D1*
X2943700Y1293700D2*
D13*
X3143700D1*
X3243700Y1193700D1*
X1068700Y1743700D2*
D14*
Y1831200D1*
X1118700Y1881200D1*
X1493700D1*
X1556200Y1943700D1*
X1768700D1*
X1893700D1*
X2093700Y1743700D1*
X1493700Y2093700D2*
X1556200Y2031200D1*
Y1943700D1*
X3518700Y2417125D2*
X3445275D1*
X3293700Y2568700D1*
X2993700D1*
X2643700Y2918700D1*
X2793700Y868700D2*
X2868700Y793700D1*
X3206200D1*
X3307775Y895275D1*
X3518700D1*
X943700Y2443700D2*
D13*
X743700D1*
X568700D1*
X468700Y2343700D1*
X518700Y2793700D2*
X668700D1*
X743700Y2718700D1*
Y2443700D1*
X2418700Y3068700D2*
D14*
X2718700D1*
X2968700Y2818700D1*
X3243700D1*
X2418700Y3268700D2*
Y3068700D1*
X1593700D1*
X1493700Y2968700D1*
X2643700Y2118700D2*
X2693700Y2168700D1*
X3443700D1*
X3518700Y2243700D1*
Y2318700D1*
X2643700Y2118700D2*
X2268700D1*
X2143700D1*
X2018700Y2243700D1*
X1618700D1*
X1493700Y2193700D2*
X1543700Y2243700D1*
X1618700D1*
X1493700Y1743700D2*
X1618700D1*
Y1793700D1*
X1668700Y1843700D1*
X1818700D1*
X1943700Y818700D2*
X2018700D1*
X2068700Y768700D1*
X2418700Y2493700D2*
X2493700Y2568700D1*
Y2881200D1*
X2356200Y3018700D1*
X2243700D1*
X2418700Y2493700D2*
X2268700Y2343700D1*
Y2118700D1*
X2243700Y2718700D2*
Y2643700D1*
X2093700Y2493700D1*
X1743700D1*
X1643700Y518700D2*
X1568700D1*
X1518700Y568700D1*
X1068700Y2043700D2*
X1118700Y1993700D1*
X1193700D1*
X2043700Y1193700D2*
X2193700D1*
X2343700D1*
X1493700Y1343700D2*
X1581200Y1256200D1*
X1981200D1*
X2043700Y1193700D1*
X2343700Y943700D2*
X3018700D1*
X3093700Y868700D1*
X3518700Y1540550D2*
D13*
X3315550D1*
X3268700Y1493700D1*
X2943700D1*
D27*
X2281200Y868700D3*
X2193700Y1318700D3*
X1556200Y1593700D3*
X2143700Y468700D3*
X2568700Y768700D3*
X2643700Y868700D3*
X2493700Y1093700D3*
X3156200Y2468700D3*
X3018700Y2268700D3*
X2343700Y943700D3*
D16*
X1393700Y3068700D3*
D17*
Y3268700D3*
X1743700Y2918700D3*
D16*
Y2818700D3*
D17*
Y2593700D3*
D16*
Y2493700D3*
X1068700Y2043700D3*
D17*
Y2243700D3*
D16*
X1618700Y2043700D3*
D17*
Y2243700D3*
D16*
X1068700Y1543700D3*
D17*
Y1743700D3*
D16*
X1618700Y1543700D3*
D17*
Y1743700D3*
D16*
X1068700Y1143700D3*
D17*
Y1343700D3*
X2143700Y1018700D3*
D16*
Y918700D3*
X1218700Y593700D3*
D17*
Y793700D3*
D16*
X918700Y568700D3*
D17*
Y768700D3*
D16*
X1518700Y568700D3*
D17*
Y768700D3*
D16*
X2068700Y568700D3*
D17*
Y768700D3*
D16*
X2218700Y568700D3*
D17*
Y768700D3*
D16*
X2643700D3*
D17*
Y568700D3*
D18*
X618700Y2343700D3*
D19*
Y1946062D3*
D18*
X768700Y2343700D3*
D19*
Y1946062D3*
D18*
X2768700Y1193700D3*
D19*
Y1591338D3*
D17*
X1793700Y3268700D3*
D20*
X1695275D3*
D17*
X3518700Y2818700D3*
D20*
Y2917125D3*
D17*
X518700Y2793700D3*
D20*
Y2695275D3*
D17*
X3518700Y2318700D3*
D20*
Y2417125D3*
Y2515550D3*
D17*
Y1818700D3*
D20*
Y1917125D3*
D17*
Y1343700D3*
D20*
Y1442125D3*
Y1540550D3*
D17*
Y796850D3*
D20*
Y895275D3*
Y993700D3*
D21*
X843700Y3268700D3*
D22*
X1043700D3*
X943700D3*
D18*
X1343700Y2668700D3*
D19*
Y2768700D3*
Y2868700D3*
D18*
X1818700Y1843700D3*
D19*
Y1743700D3*
Y1643700D3*
D18*
Y1518700D3*
D19*
Y1418700D3*
Y1318700D3*
D18*
X2943700Y1293700D3*
D19*
Y1393700D3*
Y1493700D3*
D18*
X1818700Y1193700D3*
D19*
Y1093700D3*
Y993700D3*
D23*
X2418700Y2668700D3*
D24*
Y3068700D3*
D25*
X743700Y2443700D3*
D26*
Y3043700D3*
D25*
X943700D3*
D26*
Y2443700D3*
D23*
X1143700Y2968700D3*
D24*
Y2568700D3*
D23*
X1493700D3*
D24*
Y2968700D3*
D23*
X468700Y1943700D3*
D24*
Y2343700D3*
D23*
X918700D3*
D24*
Y1943700D3*
D23*
X1768700D3*
D24*
Y2343700D3*
D23*
X2193700D3*
D24*
Y1943700D3*
D23*
X2343700Y2343700D3*
D24*
Y1943700D3*
D23*
X2493700Y2343700D3*
D24*
Y1943700D3*
D18*
X2018700Y2043700D3*
D19*
X1918700Y2143700D3*
X2018700Y2243700D3*
D23*
X918700Y1443700D3*
D24*
Y1843700D3*
D23*
X2043700Y1593700D3*
D24*
Y1193700D3*
D23*
X2193700Y1593700D3*
D24*
Y1193700D3*
D23*
X2343700Y1593700D3*
D24*
Y1193700D3*
D23*
X2493700Y1593700D3*
D24*
Y1193700D3*
D23*
X2643700Y1593700D3*
D24*
Y1193700D3*
D23*
X3093700D3*
D24*
Y1593700D3*
D23*
X3243700Y1193700D3*
D24*
Y1593700D3*
D23*
X918700Y1343700D3*
D24*
Y943700D3*
D23*
X1618700Y1343700D3*
D24*
Y943700D3*
D23*
X1068700Y468700D3*
D24*
Y868700D3*
D23*
X1368700D3*
D24*
Y468700D3*
D23*
X2368700Y868700D3*
D24*
Y468700D3*
D23*
X2493700Y868700D3*
D24*
Y468700D3*
D23*
X2793700D3*
D24*
Y868700D3*
D23*
X2943700D3*
D24*
Y468700D3*
D23*
X3093700D3*
D24*
Y868700D3*
D23*
X2093700Y3268700D3*
X2418700D3*
X2093700Y2493700D3*
X2418700D3*
X693700Y1743700D3*
X2093700D3*
X693700Y1518700D3*
Y1293700D3*
Y1068700D3*
X2568700Y1043700D3*
X2943700D3*
X693700Y843700D3*
D18*
X3243700Y1818700D3*
D19*
Y1918700D3*
Y2018700D3*
Y2118700D3*
Y2218700D3*
Y2318700D3*
Y2418700D3*
Y2518700D3*
Y2618700D3*
Y2718700D3*
Y2818700D3*
Y2918700D3*
Y3018700D3*
Y3118700D3*
Y3218700D3*
X2643700D3*
Y3118700D3*
Y3018700D3*
Y2918700D3*
Y2818700D3*
Y2718700D3*
Y2618700D3*
Y2518700D3*
Y2418700D3*
Y2318700D3*
Y2218700D3*
Y2118700D3*
Y2018700D3*
Y1918700D3*
Y1818700D3*
D18*
X1943700Y3018700D3*
D19*
Y2918700D3*
Y2818700D3*
Y2718700D3*
X2243700D3*
Y2818700D3*
Y2918700D3*
Y3018700D3*
D18*
X1193700Y2293700D3*
D19*
Y2193700D3*
Y2093700D3*
Y1993700D3*
X1493700D3*
Y2093700D3*
Y2193700D3*
Y2293700D3*
D18*
X1193700Y1743700D3*
D19*
Y1643700D3*
Y1543700D3*
Y1443700D3*
Y1343700D3*
Y1243700D3*
Y1143700D3*
X1493700D3*
Y1243700D3*
Y1343700D3*
Y1443700D3*
Y1543700D3*
Y1643700D3*
Y1743700D3*
D18*
X1643700Y818700D3*
D19*
Y718700D3*
Y618700D3*
Y518700D3*
X1943700D3*
Y618700D3*
Y718700D3*
Y818700D3*
G04 BoardOutline*
X393700Y393700D2*
D11*
X3643700D1*
Y3393700D1*
X393700D1*
Y393700D1*
M02*
