G04 DipTrace 3.3.1.3*
G04 TopSilk.gbr*
%MOIN*%
G04 #@! TF.FileFunction,Legend,Top*
G04 #@! TF.Part,Single*
%ADD10C,0.009843*%
%ADD11C,0.005512*%
%ADD63C,0.00772*%
%ADD64C,0.006176*%
%ADD65C,0.009264*%
%FSLAX26Y26*%
G04*
G70*
G90*
G75*
G01*
G04 TopSilk*
%LPD*%
X1381880Y3349811D2*
D10*
X1405520D1*
X1393700Y3361607D2*
Y3337980D1*
X1243700Y3168701D2*
G02X1243700Y3168701I150000J0D01*
G01*
X1731880Y2998581D2*
X1755520D1*
X1743700Y3010400D2*
Y2986787D1*
X1643700Y2868671D2*
G02X1643700Y2868671I100000J0D01*
G01*
X1731880Y2673581D2*
X1755520D1*
X1743700Y2685400D2*
Y2661787D1*
X1643700Y2543671D2*
G02X1643700Y2543671I100000J0D01*
G01*
X1128700Y2263580D2*
Y2023820D1*
X1008700Y2263580D2*
Y2023820D1*
G03X1128700Y2023820I60000J-120D01*
G01*
Y2263580D2*
G03X1008700Y2263580I-60000J120D01*
G01*
X1678700D2*
Y2023820D1*
X1558700Y2263580D2*
Y2023820D1*
G03X1678700Y2023820I60000J-120D01*
G01*
Y2263580D2*
G03X1558700Y2263580I-60000J120D01*
G01*
X1128700Y1763580D2*
Y1523820D1*
X1008700Y1763580D2*
Y1523820D1*
G03X1128700Y1523820I60000J-120D01*
G01*
Y1763580D2*
G03X1008700Y1763580I-60000J120D01*
G01*
X1678700D2*
Y1523820D1*
X1558700Y1763580D2*
Y1523820D1*
G03X1678700Y1523820I60000J-120D01*
G01*
Y1763580D2*
G03X1558700Y1763580I-60000J120D01*
G01*
X1128700Y1363580D2*
Y1123820D1*
X1008700Y1363580D2*
Y1123820D1*
G03X1128700Y1123820I60000J-120D01*
G01*
Y1363580D2*
G03X1008700Y1363580I-60000J120D01*
G01*
X2131880Y1098581D2*
X2155520D1*
X2143700Y1110400D2*
Y1086787D1*
X2043700Y968671D2*
G02X2043700Y968671I100000J0D01*
G01*
X1278700Y813580D2*
Y573820D1*
X1158700Y813580D2*
Y573820D1*
G03X1278700Y573820I60000J-120D01*
G01*
Y813580D2*
G03X1158700Y813580I-60000J120D01*
G01*
X978700Y788580D2*
Y548820D1*
X858700Y788580D2*
Y548820D1*
G03X978700Y548820I60000J-120D01*
G01*
Y788580D2*
G03X858700Y788580I-60000J120D01*
G01*
X1578700D2*
Y548820D1*
X1458700Y788580D2*
Y548820D1*
G03X1578700Y548820I60000J-120D01*
G01*
Y788580D2*
G03X1458700Y788580I-60000J120D01*
G01*
X2128700D2*
Y548820D1*
X2008700Y788580D2*
Y548820D1*
G03X2128700Y548820I60000J-120D01*
G01*
Y788580D2*
G03X2008700Y788580I-60000J120D01*
G01*
X2278700D2*
Y548820D1*
X2158700Y788580D2*
Y548820D1*
G03X2278700Y548820I60000J-120D01*
G01*
Y788580D2*
G03X2158700Y788580I-60000J120D01*
G01*
X2583700Y548820D2*
Y788580D1*
X2703700Y548820D2*
Y788580D1*
G03X2583700Y788580I-60000J120D01*
G01*
Y548820D2*
G03X2703700Y548820I60000J-120D01*
G01*
X573424Y2245354D2*
X663976D1*
Y2044409D1*
X573424Y2211969D2*
X663976D1*
X573424Y2044409D2*
X663976D1*
X573424Y2245354D2*
Y2044409D1*
X723424Y2245354D2*
X813976D1*
Y2044409D1*
X723424Y2211969D2*
X813976D1*
X723424Y2044409D2*
X813976D1*
X723424Y2245354D2*
Y2044409D1*
X2813976Y1292046D2*
X2723424D1*
Y1492991D1*
X2813976Y1325431D2*
X2723424D1*
X2813976Y1492991D2*
X2723424D1*
X2813976Y1292046D2*
Y1492991D1*
X1838987Y3154500D2*
X1649987D1*
Y3382900D1*
X1838987D1*
Y3154500D1*
X1819483Y3181200D2*
X1669492D1*
X1819483D2*
Y3156190D1*
X1669492Y3181200D2*
Y3156190D1*
X3404500Y2773413D2*
X3632900D1*
Y2962413D1*
X3404500D1*
Y2773413D1*
X3431200Y2792917D2*
Y2942908D1*
Y2792917D2*
X3406190D1*
X3431200Y2942908D2*
X3406190D1*
X632900Y2838987D2*
X404500D1*
Y2649987D1*
X632900D1*
Y2838987D1*
X606200Y2819483D2*
Y2669492D1*
Y2819483D2*
X631210D1*
X606200Y2669492D2*
X631210D1*
X3404500Y2273425D2*
X3632900D1*
Y2560825D1*
X3404500D1*
Y2273425D1*
X3431200Y2292135D2*
Y2542116D1*
X3406190D1*
X3431200Y2292135D2*
X3406190D1*
X3404500Y1773413D2*
X3632900D1*
Y1962413D1*
X3404500D1*
Y1773413D1*
X3431200Y1792917D2*
Y1942908D1*
Y1792917D2*
X3406190D1*
X3431200Y1942908D2*
X3406190D1*
X3404500Y1298425D2*
X3632900D1*
Y1585825D1*
X3404500D1*
Y1298425D1*
X3431200Y1317135D2*
Y1567116D1*
X3406190D1*
X3431200Y1317135D2*
X3406190D1*
X3404500Y751575D2*
X3632900D1*
Y1038975D1*
X3404500D1*
Y751575D1*
X3431200Y770284D2*
Y1020265D1*
X3406190D1*
X3431200Y770284D2*
X3406190D1*
X786220Y3328180D2*
X864960D1*
X746850Y3380905D2*
X1140550D1*
X1120865Y3191928D1*
X766535D1*
X746850Y3380905D1*
X904330Y3328180D2*
X983070D1*
X1022440D2*
X1101180D1*
X1406692Y2847453D2*
X1394886Y2851364D1*
X1284644Y2847453D2*
G03X1284644Y2689947I49953J-78753D01*
G01*
X1406692D2*
X1394886Y2686036D1*
X1406692Y2689947D2*
Y2847453D1*
X1755708Y1664947D2*
X1767514Y1661036D1*
X1877756Y1664947D2*
G03X1877756Y1822453I-49953J78753D01*
G01*
X1755708D2*
X1767514Y1826364D1*
X1755708Y1822453D2*
Y1664947D1*
Y1339947D2*
X1767514Y1336036D1*
X1877756Y1339947D2*
G03X1877756Y1497453I-49953J78753D01*
G01*
X1755708D2*
X1767514Y1501364D1*
X1755708Y1497453D2*
Y1339947D1*
X3006692Y1472453D2*
X2994886Y1476364D1*
X2884644Y1472453D2*
G03X2884644Y1314947I49953J-78753D01*
G01*
X3006692D2*
X2994886Y1311036D1*
X3006692Y1314947D2*
Y1472453D1*
X1755708Y1014947D2*
X1767514Y1011036D1*
X1877756Y1014947D2*
G03X1877756Y1172453I-49953J78753D01*
G01*
X1755708D2*
X1767514Y1176364D1*
X1755708Y1172453D2*
Y1014947D1*
X2468700Y2968520D2*
Y2768880D1*
X2368700D2*
X2468700D1*
X2368700Y2968520D2*
Y2768880D1*
Y2968520D2*
X2468700D1*
X818700Y2944030D2*
Y2543370D1*
X668700D2*
X818700D1*
X668700Y2944030D2*
Y2543370D1*
Y2944030D2*
X818700D1*
X868700Y2543370D2*
Y2944030D1*
X1018700D2*
X868700D1*
X1018700Y2543370D2*
Y2944030D1*
Y2543370D2*
X868700D1*
X1093700Y2668880D2*
Y2868520D1*
X1193700D2*
X1093700D1*
X1193700Y2668880D2*
Y2868520D1*
Y2668880D2*
X1093700D1*
X1543700Y2868520D2*
Y2668880D1*
X1443700D2*
X1543700D1*
X1443700Y2868520D2*
Y2668880D1*
Y2868520D2*
X1543700D1*
X518700Y2243520D2*
Y2043880D1*
X418700D2*
X518700D1*
X418700Y2243520D2*
Y2043880D1*
Y2243520D2*
X518700D1*
X868700Y2043880D2*
Y2243520D1*
X968700D2*
X868700D1*
X968700Y2043880D2*
Y2243520D1*
Y2043880D2*
X868700D1*
X1818700Y2243520D2*
Y2043880D1*
X1718700D2*
X1818700D1*
X1718700Y2243520D2*
Y2043880D1*
Y2243520D2*
X1818700D1*
X2143700Y2043880D2*
Y2243520D1*
X2243700D2*
X2143700D1*
X2243700Y2043880D2*
Y2243520D1*
Y2043880D2*
X2143700D1*
X2293700D2*
Y2243520D1*
X2393700D2*
X2293700D1*
X2393700Y2043880D2*
Y2243520D1*
Y2043880D2*
X2293700D1*
X2443700D2*
Y2243520D1*
X2543700D2*
X2443700D1*
X2543700Y2043880D2*
Y2243520D1*
Y2043880D2*
X2443700D1*
X2093897Y2330708D2*
X1853739D1*
X2093897Y1956692D2*
X1853739D1*
X2082081Y2297233D2*
Y1994094D1*
X2093897Y2330708D2*
Y2297233D1*
X2082081D1*
Y1994094D2*
X2093897D1*
Y1956692D1*
X1853739Y2330708D2*
Y1956692D1*
X968700Y1743520D2*
Y1543880D1*
X868700D2*
X968700D1*
X868700Y1743520D2*
Y1543880D1*
Y1743520D2*
X968700D1*
X1993700Y1293880D2*
Y1493520D1*
X2093700D2*
X1993700D1*
X2093700Y1293880D2*
Y1493520D1*
Y1293880D2*
X1993700D1*
X2143700D2*
Y1493520D1*
X2243700D2*
X2143700D1*
X2243700Y1293880D2*
Y1493520D1*
Y1293880D2*
X2143700D1*
X2293700D2*
Y1493520D1*
X2393700D2*
X2293700D1*
X2393700Y1293880D2*
Y1493520D1*
Y1293880D2*
X2293700D1*
X2443700D2*
Y1493520D1*
X2543700D2*
X2443700D1*
X2543700Y1293880D2*
Y1493520D1*
Y1293880D2*
X2443700D1*
X2593700D2*
Y1493520D1*
X2693700D2*
X2593700D1*
X2693700Y1293880D2*
Y1493520D1*
Y1293880D2*
X2593700D1*
X3143700Y1493520D2*
Y1293880D1*
X3043700D2*
X3143700D1*
X3043700Y1493520D2*
Y1293880D1*
Y1493520D2*
X3143700D1*
X3293700D2*
Y1293880D1*
X3193700D2*
X3293700D1*
X3193700Y1493520D2*
Y1293880D1*
Y1493520D2*
X3293700D1*
X868700Y1043880D2*
Y1243520D1*
X968700D2*
X868700D1*
X968700Y1043880D2*
Y1243520D1*
Y1043880D2*
X868700D1*
X1568700D2*
Y1243520D1*
X1668700D2*
X1568700D1*
X1668700Y1043880D2*
Y1243520D1*
Y1043880D2*
X1568700D1*
X1118700Y768520D2*
Y568880D1*
X1018700D2*
X1118700D1*
X1018700Y768520D2*
Y568880D1*
Y768520D2*
X1118700D1*
X1318700Y568880D2*
Y768520D1*
X1418700D2*
X1318700D1*
X1418700Y568880D2*
Y768520D1*
Y568880D2*
X1318700D1*
X2318700D2*
Y768520D1*
X2418700D2*
X2318700D1*
X2418700Y568880D2*
Y768520D1*
Y568880D2*
X2318700D1*
X2443700D2*
Y768520D1*
X2543700D2*
X2443700D1*
X2543700Y568880D2*
Y768520D1*
Y568880D2*
X2443700D1*
X2843700Y768520D2*
Y568880D1*
X2743700D2*
X2843700D1*
X2743700Y768520D2*
Y568880D1*
Y768520D2*
X2843700D1*
X2893700Y568880D2*
Y768520D1*
X2993700D2*
X2893700D1*
X2993700Y568880D2*
Y768520D1*
Y568880D2*
X2893700D1*
X3143700Y768520D2*
Y568880D1*
X3043700D2*
X3143700D1*
X3043700Y768520D2*
Y568880D1*
Y768520D2*
X3143700D1*
X2050393Y3268700D2*
G02X2050393Y3268700I43307J0D01*
G01*
X2375393D2*
G02X2375393Y3268700I43307J0D01*
G01*
X2050393Y2493700D2*
G02X2050393Y2493700I43307J0D01*
G01*
X2375393D2*
G02X2375393Y2493700I43307J0D01*
G01*
X650393Y1743700D2*
G02X650393Y1743700I43307J0D01*
G01*
X2050393D2*
G02X2050393Y1743700I43307J0D01*
G01*
X650393Y1518700D2*
G02X650393Y1518700I43307J0D01*
G01*
Y1293700D2*
G02X650393Y1293700I43307J0D01*
G01*
Y1068700D2*
G02X650393Y1068700I43307J0D01*
G01*
X2525393Y1043700D2*
G02X2525393Y1043700I43307J0D01*
G01*
X2900393D2*
G02X2900393Y1043700I43307J0D01*
G01*
X650393Y843700D2*
G02X650393Y843700I43307J0D01*
G01*
X3313779Y1668306D2*
X2573621D1*
Y3369094D1*
X3313779D1*
Y1668306D1*
X2196067Y3065550D2*
Y2671850D1*
X1991333D2*
X2196067D1*
X1991333Y3065550D2*
Y2671850D1*
Y3065550D2*
X2070074D1*
X2196067D2*
X2117326D1*
X2070074D2*
G03X2117326Y3065550I23626J4D01*
G01*
X1446067Y2340550D2*
Y1946850D1*
X1241333D2*
X1446067D1*
X1241333Y2340550D2*
Y1946850D1*
Y2340550D2*
X1320074D1*
X1446067D2*
X1367326D1*
X1320074D2*
G03X1367326Y2340550I23626J4D01*
G01*
X1446067Y1829527D2*
Y1057873D1*
X1241333D2*
X1446067D1*
X1241333Y1829527D2*
Y1057873D1*
Y1829527D2*
X1320074D1*
X1446067D2*
X1367326D1*
X1320074D2*
G03X1367326Y1829527I23626J13D01*
G01*
X1896067Y865550D2*
Y471850D1*
X1691333D2*
X1896067D1*
X1691333Y865550D2*
Y471850D1*
Y865550D2*
X1770074D1*
X1896067D2*
X1817326D1*
X1770074D2*
G03X1817326Y865550I23626J4D01*
G01*
X1397919Y3172892D2*
D63*
X1395542Y3177645D1*
X1390734Y3182453D1*
X1385980Y3184830D1*
X1376419D1*
X1371610Y3182453D1*
X1366857Y3177645D1*
X1364425Y3172892D1*
X1362049Y3165707D1*
Y3153713D1*
X1364425Y3146583D1*
X1366857Y3141775D1*
X1371610Y3137022D1*
X1376419Y3134590D1*
X1385980D1*
X1390734Y3137022D1*
X1395542Y3141775D1*
X1397919Y3146583D1*
X1413358Y3175213D2*
X1418166Y3177645D1*
X1425351Y3184775D1*
Y3134590D1*
X1612167Y2996684D2*
X1609791Y3001437D1*
X1604982Y3006245D1*
X1600229Y3008622D1*
X1590668D1*
X1585859Y3006245D1*
X1581106Y3001437D1*
X1578674Y2996684D1*
X1576297Y2989499D1*
Y2977505D1*
X1578674Y2970375D1*
X1581106Y2965567D1*
X1585859Y2960814D1*
X1590668Y2958382D1*
X1600229D1*
X1604982Y2960814D1*
X1609791Y2965567D1*
X1612167Y2970375D1*
X1630038Y2996628D2*
Y2999005D1*
X1632415Y3003813D1*
X1634792Y3006190D1*
X1639600Y3008567D1*
X1649162D1*
X1653915Y3006190D1*
X1656291Y3003813D1*
X1658723Y2999005D1*
Y2994252D1*
X1656291Y2989443D1*
X1651538Y2982314D1*
X1627607Y2958382D1*
X1661100D1*
X1612169Y2665436D2*
X1609792Y2670189D1*
X1604984Y2674997D1*
X1600230Y2677374D1*
X1590669D1*
X1585860Y2674997D1*
X1581107Y2670189D1*
X1578675Y2665436D1*
X1576299Y2658251D1*
Y2646257D1*
X1578675Y2639127D1*
X1581107Y2634319D1*
X1585860Y2629566D1*
X1590669Y2627134D1*
X1600230D1*
X1604984Y2629566D1*
X1609792Y2634319D1*
X1612169Y2639127D1*
X1632416Y2677319D2*
X1658669D1*
X1644355Y2658195D1*
X1651540D1*
X1656293Y2655819D1*
X1658669Y2653442D1*
X1661101Y2646257D1*
Y2641504D1*
X1658669Y2634319D1*
X1653916Y2629510D1*
X1646731Y2627134D1*
X1639546D1*
X1632416Y2629510D1*
X1630040Y2631942D1*
X1627608Y2636695D1*
X1060980Y2153736D2*
X1058604Y2158489D1*
X1053795Y2163297D1*
X1049042Y2165674D1*
X1039481D1*
X1034672Y2163297D1*
X1029919Y2158489D1*
X1027487Y2153736D1*
X1025110Y2146550D1*
Y2134557D1*
X1027487Y2127427D1*
X1029919Y2122619D1*
X1034672Y2117866D1*
X1039481Y2115434D1*
X1049042D1*
X1053795Y2117866D1*
X1058604Y2122619D1*
X1060980Y2127427D1*
X1100351Y2115434D2*
Y2165618D1*
X1076420Y2132180D1*
X1112290D1*
X1612169Y2153734D2*
X1609792Y2158487D1*
X1604984Y2163296D1*
X1600230Y2165672D1*
X1590669D1*
X1585860Y2163296D1*
X1581107Y2158487D1*
X1578675Y2153734D1*
X1576299Y2146549D1*
Y2134556D1*
X1578675Y2127426D1*
X1581107Y2122617D1*
X1585860Y2117864D1*
X1590669Y2115432D1*
X1600230D1*
X1604984Y2117864D1*
X1609792Y2122617D1*
X1612169Y2127426D1*
X1656293Y2165617D2*
X1632416D1*
X1630040Y2144117D1*
X1632416Y2146494D1*
X1639601Y2148926D1*
X1646731D1*
X1653916Y2146494D1*
X1658725Y2141741D1*
X1661101Y2134556D1*
Y2129802D1*
X1658725Y2122617D1*
X1653916Y2117809D1*
X1646731Y2115432D1*
X1639601D1*
X1632416Y2117809D1*
X1630040Y2120241D1*
X1627608Y2124994D1*
X1057415Y1637134D2*
X1052662Y1634757D1*
X1047853Y1629949D1*
X1045477Y1625196D1*
Y1615634D1*
X1047853Y1610826D1*
X1052662Y1606073D1*
X1057415Y1603641D1*
X1064600Y1601264D1*
X1076594D1*
X1083723Y1603641D1*
X1088532Y1606073D1*
X1093285Y1610826D1*
X1095717Y1615634D1*
Y1625196D1*
X1093285Y1629949D1*
X1088532Y1634757D1*
X1083723Y1637134D1*
X1052662Y1681258D2*
X1047909Y1678882D1*
X1045532Y1671697D1*
Y1666943D1*
X1047909Y1659758D1*
X1055094Y1654950D1*
X1067032Y1652573D1*
X1078970D1*
X1088532Y1654950D1*
X1093340Y1659758D1*
X1095717Y1666943D1*
Y1669320D1*
X1093340Y1676450D1*
X1088532Y1681258D1*
X1081347Y1683635D1*
X1078970D1*
X1071785Y1681258D1*
X1067032Y1676450D1*
X1064655Y1669320D1*
Y1666943D1*
X1067032Y1659758D1*
X1071785Y1654950D1*
X1078970Y1652573D1*
X1607415Y1635919D2*
X1602662Y1633543D1*
X1597853Y1628734D1*
X1595477Y1623981D1*
Y1614420D1*
X1597853Y1609611D1*
X1602662Y1604858D1*
X1607415Y1602426D1*
X1614600Y1600050D1*
X1626594D1*
X1633723Y1602426D1*
X1638532Y1604858D1*
X1643285Y1609611D1*
X1645717Y1614420D1*
Y1623981D1*
X1643285Y1628734D1*
X1638532Y1633543D1*
X1633723Y1635919D1*
X1645717Y1660920D2*
X1595532Y1684852D1*
Y1651359D1*
X1062196Y1259985D2*
X1059820Y1264738D1*
X1055011Y1269546D1*
X1050258Y1271923D1*
X1040696D1*
X1035888Y1269546D1*
X1031135Y1264738D1*
X1028703Y1259985D1*
X1026326Y1252800D1*
Y1240806D1*
X1028703Y1233677D1*
X1031135Y1228868D1*
X1035888Y1224115D1*
X1040696Y1221683D1*
X1050258D1*
X1055011Y1224115D1*
X1059820Y1228868D1*
X1062196Y1233677D1*
X1089574Y1271868D2*
X1082444Y1269491D1*
X1080012Y1264738D1*
Y1259930D1*
X1082444Y1255176D1*
X1087197Y1252745D1*
X1096759Y1250368D1*
X1103944Y1247991D1*
X1108697Y1243183D1*
X1111074Y1238430D1*
Y1231245D1*
X1108697Y1226492D1*
X1106320Y1224060D1*
X1099135Y1221683D1*
X1089574D1*
X1082444Y1224060D1*
X1080012Y1226492D1*
X1077636Y1231245D1*
Y1238430D1*
X1080012Y1243183D1*
X1084821Y1247991D1*
X1091950Y1250368D1*
X1101512Y1252745D1*
X1106320Y1255176D1*
X1108697Y1259930D1*
Y1264738D1*
X1106320Y1269491D1*
X1099135Y1271868D1*
X1089574D1*
X1969608Y984185D2*
X1967231Y988938D1*
X1962423Y993747D1*
X1957669Y996123D1*
X1948108D1*
X1943299Y993747D1*
X1938546Y988938D1*
X1936114Y984185D1*
X1933738Y977000D1*
Y965006D1*
X1936114Y957877D1*
X1938546Y953068D1*
X1943299Y948315D1*
X1948108Y945883D1*
X1957669D1*
X1962423Y948315D1*
X1967231Y953068D1*
X1969608Y957877D1*
X2016164Y979377D2*
X2013732Y972191D1*
X2008979Y967383D1*
X2001794Y965006D1*
X1999417D1*
X1992232Y967383D1*
X1987479Y972191D1*
X1985047Y979377D1*
Y981753D1*
X1987479Y988938D1*
X1992232Y993691D1*
X1999417Y996068D1*
X2001794D1*
X2008979Y993691D1*
X2013732Y988938D1*
X2016164Y979377D1*
Y967383D1*
X2013732Y955445D1*
X2008979Y948260D1*
X2001794Y945883D1*
X1997040D1*
X1989855Y948260D1*
X1987479Y953068D1*
X1207415Y672203D2*
X1202662Y669826D1*
X1197853Y665018D1*
X1195477Y660265D1*
Y650703D1*
X1197853Y645895D1*
X1202662Y641142D1*
X1207415Y638710D1*
X1214600Y636333D1*
X1226594D1*
X1233723Y638710D1*
X1238532Y641142D1*
X1243285Y645895D1*
X1245717Y650703D1*
Y660265D1*
X1243285Y665018D1*
X1238532Y669826D1*
X1233723Y672203D1*
X1205094Y687642D2*
X1202662Y692451D1*
X1195532Y699636D1*
X1245717D1*
X1195532Y729445D2*
X1197909Y722260D1*
X1205094Y717452D1*
X1217032Y715075D1*
X1224217D1*
X1236155Y717452D1*
X1243340Y722260D1*
X1245717Y729445D1*
Y734198D1*
X1243340Y741383D1*
X1236155Y746136D1*
X1224217Y748568D1*
X1217032D1*
X1205094Y746136D1*
X1197909Y741383D1*
X1195532Y734198D1*
Y729445D1*
X1205094Y746136D2*
X1236155Y717452D1*
X903664Y659202D2*
X898911Y656826D1*
X894103Y652017D1*
X891726Y647264D1*
Y637703D1*
X894103Y632894D1*
X898911Y628141D1*
X903664Y625709D1*
X910849Y623332D1*
X922843D1*
X929973Y625709D1*
X934781Y628141D1*
X939534Y632894D1*
X941966Y637702D1*
Y647264D1*
X939534Y652017D1*
X934781Y656826D1*
X929973Y659202D1*
X901343Y674642D2*
X898911Y679450D1*
X891781Y686635D1*
X941966D1*
X901343Y702074D2*
X898911Y706883D1*
X891781Y714068D1*
X941966D1*
X1503664Y642203D2*
X1498911Y639826D1*
X1494103Y635018D1*
X1491726Y630265D1*
Y620703D1*
X1494103Y615895D1*
X1498911Y611142D1*
X1503664Y608710D1*
X1510849Y606333D1*
X1522843D1*
X1529973Y608710D1*
X1534781Y611142D1*
X1539534Y615895D1*
X1541966Y620703D1*
Y630265D1*
X1539534Y635018D1*
X1534781Y639826D1*
X1529973Y642203D1*
X1501343Y657642D2*
X1498911Y662451D1*
X1491781Y669636D1*
X1541966D1*
X1503720Y687507D2*
X1501343D1*
X1496535Y689883D1*
X1494158Y692260D1*
X1491781Y697068D1*
Y706630D1*
X1494158Y711383D1*
X1496535Y713760D1*
X1501343Y716192D1*
X1506096D1*
X1510905Y713760D1*
X1518034Y709007D1*
X1541966Y685075D1*
Y718568D1*
X2059915Y648452D2*
X2055162Y646076D1*
X2050353Y641267D1*
X2047977Y636514D1*
Y626953D1*
X2050353Y622144D1*
X2055162Y617391D1*
X2059915Y614959D1*
X2067100Y612583D1*
X2079094D1*
X2086223Y614959D1*
X2091032Y617391D1*
X2095785Y622144D1*
X2098217Y626953D1*
Y636514D1*
X2095785Y641267D1*
X2091032Y646076D1*
X2086223Y648452D1*
X2057594Y663892D2*
X2055162Y668700D1*
X2048032Y675885D1*
X2098217D1*
X2048032Y696133D2*
Y722386D1*
X2067155Y708071D1*
Y715256D1*
X2069532Y720009D1*
X2071909Y722386D1*
X2079094Y724818D1*
X2083847D1*
X2091032Y722386D1*
X2095840Y717633D1*
X2098217Y710448D1*
Y703263D1*
X2095840Y696133D1*
X2093408Y693756D1*
X2088655Y691324D1*
X2207415Y646015D2*
X2202662Y643638D1*
X2197853Y638830D1*
X2195477Y634077D1*
Y624515D1*
X2197853Y619706D1*
X2202662Y614953D1*
X2207415Y612521D1*
X2214600Y610145D1*
X2226594D1*
X2233723Y612521D1*
X2238532Y614953D1*
X2243285Y619706D1*
X2245717Y624515D1*
Y634076D1*
X2243285Y638830D1*
X2238532Y643638D1*
X2233723Y646015D1*
X2205094Y661454D2*
X2202662Y666262D1*
X2195532Y673447D1*
X2245717D1*
Y712818D2*
X2195532D1*
X2228970Y688887D1*
Y724757D1*
X2632415Y647203D2*
X2627662Y644826D1*
X2622853Y640018D1*
X2620477Y635265D1*
Y625703D1*
X2622853Y620895D1*
X2627662Y616142D1*
X2632415Y613710D1*
X2639600Y611333D1*
X2651594D1*
X2658723Y613710D1*
X2663532Y616142D1*
X2668285Y620895D1*
X2670717Y625703D1*
Y635265D1*
X2668285Y640018D1*
X2663532Y644826D1*
X2658723Y647203D1*
X2630094Y662642D2*
X2627662Y667451D1*
X2620532Y674636D1*
X2670717D1*
X2620532Y718760D2*
Y694883D1*
X2642032Y692507D1*
X2639655Y694883D1*
X2637224Y702068D1*
Y709198D1*
X2639655Y716383D1*
X2644409Y721192D1*
X2651594Y723568D1*
X2656347D1*
X2663532Y721192D1*
X2668340Y716383D1*
X2670717Y709198D1*
Y702068D1*
X2668340Y694883D1*
X2665908Y692507D1*
X2661155Y690075D1*
X593952Y2101918D2*
X644192D1*
Y2118665D1*
X641760Y2125850D1*
X637007Y2130658D1*
X632199Y2133035D1*
X625069Y2135411D1*
X613075D1*
X605890Y2133035D1*
X601137Y2130658D1*
X596329Y2125850D1*
X593952Y2118665D1*
Y2101918D1*
X603569Y2150851D2*
X601137Y2155659D1*
X594007Y2162844D1*
X644192D1*
X743952Y2103668D2*
X794192D1*
Y2120415D1*
X791760Y2127600D1*
X787007Y2132408D1*
X782199Y2134785D1*
X775069Y2137162D1*
X763075D1*
X755890Y2134785D1*
X751137Y2132408D1*
X746329Y2127600D1*
X743952Y2120415D1*
Y2103668D1*
X755946Y2155033D2*
X753569D1*
X748761Y2157409D1*
X746384Y2159786D1*
X744007Y2164594D1*
Y2174156D1*
X746384Y2178909D1*
X748761Y2181286D1*
X753569Y2183718D1*
X758322D1*
X763131Y2181286D1*
X770260Y2176532D1*
X794192Y2152601D1*
Y2186094D1*
X2750201Y1351306D2*
X2800441D1*
Y1368053D1*
X2798010Y1375238D1*
X2793256Y1380046D1*
X2788448Y1382423D1*
X2781318Y1384799D1*
X2769325D1*
X2762140Y1382423D1*
X2757386Y1380046D1*
X2752578Y1375238D1*
X2750201Y1368053D1*
Y1351306D1*
X2750257Y1405047D2*
Y1431300D1*
X2769380Y1416985D1*
Y1424170D1*
X2771757Y1428923D1*
X2774133Y1431300D1*
X2781318Y1433732D1*
X2786071D1*
X2793256Y1431300D1*
X2798065Y1426547D1*
X2800441Y1419362D1*
Y1412177D1*
X2798065Y1405047D1*
X2795633Y1402670D1*
X2790880Y1400239D1*
X1691962Y3104815D2*
X1713517D1*
X1720647Y3107191D1*
X1723079Y3109623D1*
X1725456Y3114377D1*
Y3121562D1*
X1723079Y3126315D1*
X1720647Y3128747D1*
X1713517Y3131123D1*
X1691962D1*
Y3080883D1*
X1740895Y3131123D2*
Y3080883D1*
X1769580D1*
X1785019Y3121506D2*
X1789827Y3123938D1*
X1797013Y3131068D1*
Y3080883D1*
X3455425Y3009327D2*
X3476980D1*
X3484110Y3011704D1*
X3486542Y3014136D1*
X3488918Y3018889D1*
Y3026074D1*
X3486542Y3030827D1*
X3484110Y3033259D1*
X3476980Y3035636D1*
X3455425D1*
Y2985396D1*
X3504358Y3035636D2*
Y2985396D1*
X3533042D1*
X3550914Y3023642D2*
Y3026019D1*
X3553290Y3030827D1*
X3555667Y3033204D1*
X3560475Y3035580D1*
X3570037D1*
X3574790Y3033204D1*
X3577167Y3030827D1*
X3579598Y3026019D1*
Y3021266D1*
X3577167Y3016457D1*
X3572413Y3009327D1*
X3548482Y2985396D1*
X3581975D1*
X455425Y2585902D2*
X476980D1*
X484110Y2588279D1*
X486542Y2590711D1*
X488918Y2595464D1*
Y2602649D1*
X486542Y2607402D1*
X484110Y2609834D1*
X476980Y2612210D1*
X455425D1*
Y2561970D1*
X504358Y2612210D2*
Y2561970D1*
X533042D1*
X553290Y2612155D2*
X579543D1*
X565228Y2593032D1*
X572413D1*
X577167Y2590655D1*
X579543Y2588279D1*
X581975Y2581094D1*
Y2576341D1*
X579543Y2569156D1*
X574790Y2564347D1*
X567605Y2561970D1*
X560420D1*
X553290Y2564347D1*
X550914Y2566779D1*
X548482Y2571532D1*
X3454237Y2607740D2*
X3475792D1*
X3482922Y2610117D1*
X3485353Y2612549D1*
X3487730Y2617302D1*
Y2624487D1*
X3485353Y2629240D1*
X3482922Y2631672D1*
X3475792Y2634048D1*
X3454237D1*
Y2583808D1*
X3503169Y2634048D2*
Y2583808D1*
X3531854D1*
X3571225D2*
Y2633993D1*
X3547293Y2600555D1*
X3583163D1*
X3455425Y2009327D2*
X3476980D1*
X3484110Y2011704D1*
X3486542Y2014136D1*
X3488918Y2018889D1*
Y2026074D1*
X3486542Y2030827D1*
X3484110Y2033259D1*
X3476980Y2035636D1*
X3455425D1*
Y1985396D1*
X3504358Y2035636D2*
Y1985396D1*
X3533042D1*
X3577167Y2035580D2*
X3553290D1*
X3550914Y2014081D1*
X3553290Y2016457D1*
X3560475Y2018889D1*
X3567605D1*
X3574790Y2016457D1*
X3579598Y2011704D1*
X3581975Y2004519D1*
Y1999766D1*
X3579598Y1992581D1*
X3574790Y1987772D1*
X3567605Y1985396D1*
X3560475D1*
X3553290Y1987772D1*
X3550914Y1990204D1*
X3548482Y1994957D1*
X3456641Y1632740D2*
X3478196D1*
X3485326Y1635117D1*
X3487758Y1637549D1*
X3490134Y1642302D1*
Y1649487D1*
X3487758Y1654240D1*
X3485326Y1656672D1*
X3478196Y1659048D1*
X3456641D1*
Y1608808D1*
X3505573Y1659048D2*
Y1608808D1*
X3534258D1*
X3578383Y1651863D2*
X3576006Y1656617D1*
X3568821Y1658993D1*
X3564068D1*
X3556883Y1656617D1*
X3552074Y1649432D1*
X3549698Y1637493D1*
Y1625555D1*
X3552074Y1615993D1*
X3556883Y1611185D1*
X3564068Y1608808D1*
X3566444D1*
X3573574Y1611185D1*
X3578383Y1615993D1*
X3580759Y1623178D1*
Y1625555D1*
X3578383Y1632740D1*
X3573574Y1637493D1*
X3566444Y1639870D1*
X3564068D1*
X3556883Y1637493D1*
X3552074Y1632740D1*
X3549698Y1625555D1*
X3455425Y1085890D2*
X3476980D1*
X3484110Y1088266D1*
X3486542Y1090698D1*
X3488918Y1095451D1*
Y1102636D1*
X3486542Y1107390D1*
X3484110Y1109821D1*
X3476980Y1112198D1*
X3455425D1*
Y1061958D1*
X3504358Y1112198D2*
Y1061958D1*
X3533042D1*
X3558043D2*
X3581975Y1112143D1*
X3548482D1*
X1168952Y3310377D2*
X1164199Y3308056D1*
X1159391Y3303247D1*
X1157014Y3298439D1*
X1154582Y3291254D1*
Y3279316D1*
X1157014Y3272131D1*
X1159391Y3267377D1*
X1164199Y3262569D1*
X1168952Y3260192D1*
X1178514D1*
X1183322Y3262569D1*
X1188075Y3267377D1*
X1190452Y3272131D1*
X1192884Y3279316D1*
Y3291254D1*
X1190452Y3298439D1*
X1188075Y3303247D1*
X1183322Y3308056D1*
X1178514Y3310377D1*
X1168952D1*
X1176137Y3269754D2*
X1190452Y3255384D1*
X1208323Y3300760D2*
X1213132Y3303192D1*
X1220317Y3310322D1*
Y3260137D1*
X1307268Y2971451D2*
X1302515Y2969129D1*
X1297706Y2964321D1*
X1295330Y2959512D1*
X1292898Y2952327D1*
Y2940389D1*
X1295330Y2933204D1*
X1297706Y2928451D1*
X1302515Y2923642D1*
X1307268Y2921266D1*
X1316829D1*
X1321638Y2923642D1*
X1326391Y2928451D1*
X1328768Y2933204D1*
X1331200Y2940389D1*
Y2952327D1*
X1328768Y2959512D1*
X1326391Y2964321D1*
X1321638Y2969129D1*
X1316829Y2971451D1*
X1307268D1*
X1314453Y2930828D2*
X1328768Y2916457D1*
X1349071Y2959457D2*
Y2961834D1*
X1351447Y2966642D1*
X1353824Y2969019D1*
X1358632Y2971395D1*
X1368194D1*
X1372947Y2969019D1*
X1375324Y2966642D1*
X1377756Y2961834D1*
Y2957081D1*
X1375324Y2952272D1*
X1370571Y2945142D1*
X1346639Y2921211D1*
X1380132D1*
X1884138Y1896451D2*
X1879385Y1894129D1*
X1874576Y1889321D1*
X1872200Y1884512D1*
X1869768Y1877327D1*
Y1865389D1*
X1872200Y1858204D1*
X1874576Y1853451D1*
X1879385Y1848642D1*
X1884138Y1846266D1*
X1893700D1*
X1898508Y1848642D1*
X1903261Y1853451D1*
X1905638Y1858204D1*
X1908070Y1865389D1*
Y1877327D1*
X1905638Y1884512D1*
X1903261Y1889321D1*
X1898508Y1894129D1*
X1893700Y1896451D1*
X1884138D1*
X1891323Y1855828D2*
X1905638Y1841457D1*
X1928317Y1896395D2*
X1954570D1*
X1940256Y1877272D1*
X1947441D1*
X1952194Y1874896D1*
X1954570Y1872519D1*
X1957002Y1865334D1*
Y1860581D1*
X1954570Y1853396D1*
X1949817Y1848587D1*
X1942632Y1846211D1*
X1935447D1*
X1928317Y1848587D1*
X1925941Y1851019D1*
X1923509Y1855772D1*
X1882950Y1571451D2*
X1878196Y1569129D1*
X1873388Y1564321D1*
X1871011Y1559512D1*
X1868580Y1552327D1*
Y1540389D1*
X1871011Y1533204D1*
X1873388Y1528451D1*
X1878196Y1523642D1*
X1882950Y1521266D1*
X1892511D1*
X1897320Y1523642D1*
X1902073Y1528451D1*
X1904449Y1533204D1*
X1906881Y1540389D1*
Y1552327D1*
X1904449Y1559512D1*
X1902073Y1564321D1*
X1897320Y1569129D1*
X1892511Y1571451D1*
X1882950D1*
X1890135Y1530828D2*
X1904449Y1516457D1*
X1946252Y1521211D2*
Y1571395D1*
X1922321Y1537957D1*
X1958191D1*
X2907268Y1558951D2*
X2902515Y1556629D1*
X2897706Y1551821D1*
X2895330Y1547012D1*
X2892898Y1539827D1*
Y1527889D1*
X2895330Y1520704D1*
X2897706Y1515951D1*
X2902515Y1511142D1*
X2907268Y1508766D1*
X2916829D1*
X2921638Y1511142D1*
X2926391Y1515951D1*
X2928768Y1520704D1*
X2931200Y1527889D1*
Y1539827D1*
X2928768Y1547012D1*
X2926391Y1551821D1*
X2921638Y1556629D1*
X2916829Y1558951D1*
X2907268D1*
X2914453Y1518328D2*
X2928768Y1503957D1*
X2975324Y1558895D2*
X2951447D1*
X2949071Y1537396D1*
X2951447Y1539772D1*
X2958632Y1542204D1*
X2965762D1*
X2972947Y1539772D1*
X2977756Y1535019D1*
X2980132Y1527834D1*
Y1523081D1*
X2977756Y1515896D1*
X2972947Y1511087D1*
X2965762Y1508711D1*
X2958632D1*
X2951447Y1511087D1*
X2949071Y1513519D1*
X2946639Y1518272D1*
X1885354Y1246451D2*
X1880601Y1244129D1*
X1875792Y1239321D1*
X1873416Y1234512D1*
X1870984Y1227327D1*
Y1215389D1*
X1873416Y1208204D1*
X1875792Y1203451D1*
X1880601Y1198642D1*
X1885354Y1196266D1*
X1894915D1*
X1899724Y1198642D1*
X1904477Y1203451D1*
X1906854Y1208204D1*
X1909286Y1215389D1*
Y1227327D1*
X1906854Y1234512D1*
X1904477Y1239321D1*
X1899724Y1244129D1*
X1894915Y1246451D1*
X1885354D1*
X1892539Y1205828D2*
X1906854Y1191457D1*
X1953410Y1239266D2*
X1951033Y1244019D1*
X1943848Y1246395D1*
X1939095D1*
X1931910Y1244019D1*
X1927101Y1236834D1*
X1924725Y1224896D1*
Y1212957D1*
X1927101Y1203396D1*
X1931910Y1198587D1*
X1939095Y1196211D1*
X1941471D1*
X1948601Y1198587D1*
X1953410Y1203396D1*
X1955786Y1210581D1*
Y1212957D1*
X1953410Y1220142D1*
X1948601Y1224896D1*
X1941471Y1227272D1*
X1939095D1*
X1931910Y1224896D1*
X1927101Y1220142D1*
X1924725Y1212957D1*
X2419409Y2838237D2*
Y2859737D1*
X2416977Y2866922D1*
X2414600Y2869354D1*
X2409847Y2871730D1*
X2405039D1*
X2400285Y2869354D1*
X2397854Y2866922D1*
X2395477Y2859737D1*
Y2838237D1*
X2445717D1*
X2419409Y2854984D2*
X2445717Y2871730D1*
X2405094Y2887170D2*
X2402662Y2891978D1*
X2395532Y2899163D1*
X2445717D1*
X702487Y2752991D2*
X723987D1*
X731172Y2755423D1*
X733604Y2757800D1*
X735980Y2762553D1*
Y2767361D1*
X733604Y2772115D1*
X731172Y2774546D1*
X723987Y2776923D1*
X702487D1*
Y2726683D1*
X719234Y2752991D2*
X735980Y2726683D1*
X753851Y2764930D2*
Y2767306D1*
X756228Y2772115D1*
X758605Y2774491D1*
X763413Y2776868D1*
X772975D1*
X777728Y2774491D1*
X780105Y2772115D1*
X782536Y2767306D1*
Y2762553D1*
X780105Y2757745D1*
X775351Y2750615D1*
X751420Y2726683D1*
X784913D1*
X902487Y2752991D2*
X923987D1*
X931172Y2755423D1*
X933604Y2757800D1*
X935980Y2762553D1*
Y2767361D1*
X933604Y2772115D1*
X931172Y2774546D1*
X923987Y2776923D1*
X902487D1*
Y2726683D1*
X919234Y2752991D2*
X935980Y2726683D1*
X956228Y2776868D2*
X982481D1*
X968166Y2757745D1*
X975351D1*
X980105Y2755368D1*
X982481Y2752991D1*
X984913Y2745806D1*
Y2741053D1*
X982481Y2733868D1*
X977728Y2729060D1*
X970543Y2726683D1*
X963358D1*
X956228Y2729060D1*
X953851Y2731492D1*
X951420Y2736245D1*
X1144409Y2726299D2*
Y2747799D1*
X1141977Y2754984D1*
X1139600Y2757416D1*
X1134847Y2759792D1*
X1130039D1*
X1125285Y2757416D1*
X1122854Y2754984D1*
X1120477Y2747799D1*
Y2726299D1*
X1170717D1*
X1144409Y2743046D2*
X1170717Y2759792D1*
Y2799163D2*
X1120532D1*
X1153970Y2775231D1*
Y2811101D1*
X1494409Y2727487D2*
Y2748987D1*
X1491977Y2756172D1*
X1489600Y2758604D1*
X1484847Y2760980D1*
X1480039D1*
X1475285Y2758604D1*
X1472854Y2756172D1*
X1470477Y2748987D1*
Y2727487D1*
X1520717D1*
X1494409Y2744234D2*
X1520717Y2760980D1*
X1470532Y2805105D2*
Y2781228D1*
X1492032Y2778852D1*
X1489656Y2781228D1*
X1487224Y2788413D1*
Y2795543D1*
X1489656Y2802728D1*
X1494409Y2807536D1*
X1501594Y2809913D1*
X1506347D1*
X1513532Y2807536D1*
X1518340Y2802728D1*
X1520717Y2795543D1*
Y2788413D1*
X1518340Y2781228D1*
X1515909Y2778852D1*
X1511155Y2776420D1*
X469409Y2103703D2*
Y2125203D1*
X466977Y2132388D1*
X464600Y2134820D1*
X459847Y2137196D1*
X455039D1*
X450285Y2134820D1*
X447854Y2132388D1*
X445477Y2125203D1*
Y2103703D1*
X495717D1*
X469409Y2120450D2*
X495717Y2137196D1*
X452662Y2181320D2*
X447909Y2178944D1*
X445532Y2171759D1*
Y2167006D1*
X447909Y2159821D1*
X455094Y2155012D1*
X467032Y2152636D1*
X478970D1*
X488532Y2155012D1*
X493340Y2159821D1*
X495717Y2167006D1*
Y2169382D1*
X493340Y2176512D1*
X488532Y2181320D1*
X481347Y2183697D1*
X478970D1*
X471785Y2181320D1*
X467032Y2176512D1*
X464656Y2169382D1*
Y2167006D1*
X467032Y2159821D1*
X471785Y2155012D1*
X478970Y2152636D1*
X919409Y2102487D2*
Y2123987D1*
X916977Y2131172D1*
X914600Y2133604D1*
X909847Y2135980D1*
X905039D1*
X900285Y2133604D1*
X897854Y2131172D1*
X895477Y2123987D1*
Y2102487D1*
X945717D1*
X919409Y2119234D2*
X945717Y2135980D1*
Y2160981D2*
X895532Y2184913D1*
Y2151420D1*
X1769409Y2102515D2*
Y2124015D1*
X1766977Y2131200D1*
X1764600Y2133632D1*
X1759847Y2136008D1*
X1755039D1*
X1750285Y2133632D1*
X1747854Y2131200D1*
X1745477Y2124015D1*
Y2102515D1*
X1795717D1*
X1769409Y2119261D2*
X1795717Y2136008D1*
X1745532Y2163386D2*
X1747909Y2156256D1*
X1752662Y2153824D1*
X1757470D1*
X1762224Y2156256D1*
X1764656Y2161009D1*
X1767032Y2170571D1*
X1769409Y2177756D1*
X1774217Y2182509D1*
X1778970Y2184885D1*
X1786155D1*
X1790909Y2182509D1*
X1793340Y2180132D1*
X1795717Y2172947D1*
Y2163385D1*
X1793340Y2156256D1*
X1790909Y2153824D1*
X1786155Y2151447D1*
X1778970D1*
X1774217Y2153824D1*
X1769409Y2158632D1*
X1767032Y2165762D1*
X1764656Y2175324D1*
X1762224Y2180132D1*
X1757470Y2182509D1*
X1752662D1*
X1747909Y2180132D1*
X1745532Y2172947D1*
Y2163386D1*
X2194409Y2103675D2*
Y2125175D1*
X2191977Y2132360D1*
X2189600Y2134792D1*
X2184847Y2137169D1*
X2180039D1*
X2175285Y2134792D1*
X2172854Y2132360D1*
X2170477Y2125175D1*
Y2103675D1*
X2220717D1*
X2194409Y2120422D2*
X2220717Y2137169D1*
X2187224Y2183725D2*
X2194409Y2181293D1*
X2199217Y2176540D1*
X2201594Y2169355D1*
Y2166978D1*
X2199217Y2159793D1*
X2194409Y2155040D1*
X2187224Y2152608D1*
X2184847D1*
X2177662Y2155040D1*
X2172909Y2159793D1*
X2170532Y2166978D1*
Y2169355D1*
X2172909Y2176540D1*
X2177662Y2181293D1*
X2187224Y2183725D1*
X2199217D1*
X2211155Y2181293D1*
X2218340Y2176540D1*
X2220717Y2169355D1*
Y2164601D1*
X2218340Y2157416D1*
X2213532Y2155040D1*
X2344409Y2088771D2*
Y2110271D1*
X2341977Y2117456D1*
X2339600Y2119888D1*
X2334847Y2122264D1*
X2330039D1*
X2325285Y2119888D1*
X2322854Y2117456D1*
X2320477Y2110271D1*
Y2088771D1*
X2370717D1*
X2344409Y2105517D2*
X2370717Y2122264D1*
X2330094Y2137703D2*
X2327662Y2142512D1*
X2320532Y2149697D1*
X2370717D1*
X2320532Y2179506D2*
X2322909Y2172321D1*
X2330094Y2167513D1*
X2342032Y2165136D1*
X2349217D1*
X2361155Y2167513D1*
X2368340Y2172321D1*
X2370717Y2179506D1*
Y2184259D1*
X2368340Y2191444D1*
X2361155Y2196197D1*
X2349217Y2198629D1*
X2342032D1*
X2330094Y2196197D1*
X2322909Y2191444D1*
X2320532Y2184259D1*
Y2179506D1*
X2330094Y2196197D2*
X2361155Y2167513D1*
X2494409Y2099521D2*
Y2121021D1*
X2491977Y2128206D1*
X2489600Y2130637D1*
X2484847Y2133014D1*
X2480039D1*
X2475285Y2130637D1*
X2472854Y2128206D1*
X2470477Y2121021D1*
Y2099521D1*
X2520717D1*
X2494409Y2116267D2*
X2520717Y2133014D1*
X2480094Y2148453D2*
X2477662Y2153262D1*
X2470532Y2160447D1*
X2520717D1*
X2480094Y2175886D2*
X2477662Y2180694D1*
X2470532Y2187879D1*
X2520717D1*
X1875138Y2286249D2*
X1896638D1*
X1903823Y2288680D1*
X1906255Y2291057D1*
X1908631Y2295810D1*
Y2300619D1*
X1906255Y2305372D1*
X1903823Y2307804D1*
X1896638Y2310180D1*
X1875138D1*
Y2259940D1*
X1891885Y2286249D2*
X1908631Y2259940D1*
X1924071Y2300563D2*
X1928879Y2302995D1*
X1936064Y2310125D1*
Y2259940D1*
X1953935Y2298187D2*
Y2300563D1*
X1956312Y2305372D1*
X1958688Y2307748D1*
X1963497Y2310125D1*
X1973059D1*
X1977812Y2307748D1*
X1980188Y2305372D1*
X1982620Y2300563D1*
Y2295810D1*
X1980188Y2291002D1*
X1975435Y2283872D1*
X1951503Y2259940D1*
X1984997D1*
X919409Y1588771D2*
Y1610271D1*
X916977Y1617456D1*
X914600Y1619888D1*
X909847Y1622264D1*
X905039D1*
X900285Y1619888D1*
X897854Y1617456D1*
X895477Y1610271D1*
Y1588771D1*
X945717D1*
X919409Y1605517D2*
X945717Y1622264D1*
X905094Y1637703D2*
X902662Y1642512D1*
X895532Y1649697D1*
X945717D1*
X895532Y1669944D2*
Y1696198D1*
X914656Y1681883D1*
Y1689068D1*
X917032Y1693821D1*
X919409Y1696197D1*
X926594Y1698629D1*
X931347D1*
X938532Y1696197D1*
X943340Y1691444D1*
X945717Y1684259D1*
Y1677074D1*
X943340Y1669944D1*
X940909Y1667568D1*
X936155Y1665136D1*
X2044409Y1337583D2*
Y1359082D1*
X2041977Y1366267D1*
X2039600Y1368699D1*
X2034847Y1371076D1*
X2030039D1*
X2025285Y1368699D1*
X2022854Y1366267D1*
X2020477Y1359082D1*
Y1337583D1*
X2070717D1*
X2044409Y1354329D2*
X2070717Y1371076D1*
X2030094Y1386515D2*
X2027662Y1391323D1*
X2020532Y1398509D1*
X2070717Y1398508D1*
Y1437879D2*
X2020532D1*
X2053970Y1413948D1*
Y1449818D1*
X2194409Y1338771D2*
Y1360271D1*
X2191977Y1367456D1*
X2189600Y1369888D1*
X2184847Y1372264D1*
X2180039D1*
X2175285Y1369888D1*
X2172854Y1367456D1*
X2170477Y1360271D1*
Y1338771D1*
X2220717D1*
X2194409Y1355517D2*
X2220717Y1372264D1*
X2180094Y1387703D2*
X2177662Y1392512D1*
X2170532Y1399697D1*
X2220717D1*
X2170532Y1443821D2*
Y1419944D1*
X2192032Y1417568D1*
X2189656Y1419944D1*
X2187224Y1427130D1*
Y1434259D1*
X2189656Y1441444D1*
X2194409Y1446253D1*
X2201594Y1448629D1*
X2206347D1*
X2213532Y1446253D1*
X2218340Y1441444D1*
X2220717Y1434259D1*
Y1427129D1*
X2218340Y1419944D1*
X2215909Y1417568D1*
X2211155Y1415136D1*
X2344409Y1339987D2*
Y1361487D1*
X2341977Y1368672D1*
X2339600Y1371103D1*
X2334847Y1373480D1*
X2330039D1*
X2325285Y1371103D1*
X2322854Y1368672D1*
X2320477Y1361487D1*
Y1339987D1*
X2370717D1*
X2344409Y1356733D2*
X2370717Y1373480D1*
X2330094Y1388919D2*
X2327662Y1393728D1*
X2320532Y1400913D1*
X2370717D1*
X2327662Y1445037D2*
X2322909Y1442660D1*
X2320532Y1435475D1*
Y1430722D1*
X2322909Y1423537D1*
X2330094Y1418729D1*
X2342032Y1416352D1*
X2353970D1*
X2363532Y1418729D1*
X2368340Y1423537D1*
X2370717Y1430722D1*
Y1433099D1*
X2368340Y1440228D1*
X2363532Y1445037D1*
X2356347Y1447413D1*
X2353970D1*
X2346785Y1445037D1*
X2342032Y1440228D1*
X2339656Y1433099D1*
Y1430722D1*
X2342032Y1423537D1*
X2346785Y1418729D1*
X2353970Y1416352D1*
X2494409Y1338771D2*
Y1360271D1*
X2491977Y1367456D1*
X2489600Y1369888D1*
X2484847Y1372264D1*
X2480039D1*
X2475285Y1369888D1*
X2472854Y1367456D1*
X2470477Y1360271D1*
Y1338771D1*
X2520717D1*
X2494409Y1355517D2*
X2520717Y1372264D1*
X2480094Y1387703D2*
X2477662Y1392512D1*
X2470532Y1399697D1*
X2520717D1*
Y1424698D2*
X2470532Y1448629D1*
Y1415136D1*
X2644409Y1338798D2*
Y1360298D1*
X2641977Y1367483D1*
X2639600Y1369915D1*
X2634847Y1372292D1*
X2630039D1*
X2625285Y1369915D1*
X2622854Y1367483D1*
X2620477Y1360298D1*
Y1338798D1*
X2670717D1*
X2644409Y1355545D2*
X2670717Y1372292D1*
X2630094Y1387731D2*
X2627662Y1392539D1*
X2620532Y1399724D1*
X2670717D1*
X2620532Y1427102D2*
X2622909Y1419972D1*
X2627662Y1417540D1*
X2632470D1*
X2637224Y1419972D1*
X2639656Y1424725D1*
X2642032Y1434287D1*
X2644409Y1441472D1*
X2649217Y1446225D1*
X2653970Y1448602D1*
X2661155D1*
X2665909Y1446225D1*
X2668340Y1443849D1*
X2670717Y1436663D1*
Y1427102D1*
X2668340Y1419972D1*
X2665909Y1417540D1*
X2661155Y1415164D1*
X2653970D1*
X2649217Y1417540D1*
X2644409Y1422349D1*
X2642032Y1429478D1*
X2639656Y1439040D1*
X2637224Y1443849D1*
X2632470Y1446225D1*
X2627662D1*
X2622909Y1443849D1*
X2620532Y1436664D1*
Y1427102D1*
X3094409Y1339959D2*
Y1361459D1*
X3091977Y1368644D1*
X3089600Y1371076D1*
X3084847Y1373452D1*
X3080039D1*
X3075285Y1371076D1*
X3072854Y1368644D1*
X3070477Y1361459D1*
Y1339959D1*
X3120717D1*
X3094409Y1356706D2*
X3120717Y1373452D1*
X3080094Y1388892D2*
X3077662Y1393700D1*
X3070532Y1400885D1*
X3120717D1*
X3087224Y1447441D2*
X3094409Y1445009D1*
X3099217Y1440256D1*
X3101594Y1433071D1*
Y1430694D1*
X3099217Y1423509D1*
X3094409Y1418756D1*
X3087224Y1416324D1*
X3084847D1*
X3077662Y1418756D1*
X3072909Y1423509D1*
X3070532Y1430694D1*
Y1433071D1*
X3072909Y1440256D1*
X3077662Y1445009D1*
X3087224Y1447441D1*
X3099217D1*
X3111155Y1445009D1*
X3118340Y1440256D1*
X3120717Y1433071D1*
Y1428318D1*
X3118340Y1421133D1*
X3113532Y1418756D1*
X3244409Y1328021D2*
Y1349521D1*
X3241977Y1356706D1*
X3239600Y1359138D1*
X3234847Y1361514D1*
X3230039D1*
X3225285Y1359138D1*
X3222854Y1356706D1*
X3220477Y1349521D1*
Y1328021D1*
X3270717D1*
X3244409Y1344768D2*
X3270717Y1361514D1*
X3232470Y1379385D2*
X3230094D1*
X3225285Y1381762D1*
X3222909Y1384138D1*
X3220532Y1388947D1*
Y1398509D1*
X3222909Y1403262D1*
X3225285Y1405638D1*
X3230094Y1408070D1*
X3234847D1*
X3239656Y1405638D1*
X3246785Y1400885D1*
X3270717Y1376953D1*
Y1410447D1*
X3220532Y1440256D2*
X3222909Y1433071D1*
X3230094Y1428263D1*
X3242032Y1425886D1*
X3249217D1*
X3261155Y1428263D1*
X3268340Y1433071D1*
X3270717Y1440256D1*
Y1445009D1*
X3268340Y1452194D1*
X3261155Y1456947D1*
X3249217Y1459379D1*
X3242032D1*
X3230094Y1456947D1*
X3222909Y1452194D1*
X3220532Y1445009D1*
Y1440256D1*
X3230094Y1456947D2*
X3261155Y1428263D1*
X919409Y1088771D2*
Y1110271D1*
X916977Y1117456D1*
X914600Y1119888D1*
X909847Y1122264D1*
X905039D1*
X900285Y1119888D1*
X897854Y1117456D1*
X895477Y1110271D1*
Y1088771D1*
X945717D1*
X919409Y1105517D2*
X945717Y1122264D1*
X907470Y1140135D2*
X905094D1*
X900285Y1142512D1*
X897909Y1144888D1*
X895532Y1149697D1*
Y1159258D1*
X897909Y1164012D1*
X900285Y1166388D1*
X905094Y1168820D1*
X909847D1*
X914656Y1166388D1*
X921785Y1161635D1*
X945717Y1137703D1*
Y1171197D1*
X905094Y1186636D2*
X902662Y1191444D1*
X895532Y1198629D1*
X945717D1*
X1619409Y1078021D2*
Y1099521D1*
X1616977Y1106706D1*
X1614600Y1109138D1*
X1609847Y1111514D1*
X1605039D1*
X1600285Y1109138D1*
X1597854Y1106706D1*
X1595477Y1099521D1*
Y1078021D1*
X1645717D1*
X1619409Y1094768D2*
X1645717Y1111514D1*
X1607470Y1129385D2*
X1605094D1*
X1600285Y1131762D1*
X1597909Y1134138D1*
X1595532Y1138947D1*
Y1148509D1*
X1597909Y1153262D1*
X1600285Y1155638D1*
X1605094Y1158070D1*
X1609847D1*
X1614656Y1155638D1*
X1621785Y1150885D1*
X1645717Y1126953D1*
Y1160447D1*
X1607470Y1178318D2*
X1605094D1*
X1600285Y1180694D1*
X1597909Y1183071D1*
X1595532Y1187879D1*
Y1197441D1*
X1597909Y1202194D1*
X1600285Y1204571D1*
X1605094Y1207003D1*
X1609847D1*
X1614655Y1204571D1*
X1621785Y1199818D1*
X1645717Y1175886D1*
Y1209379D1*
X1069409Y603021D2*
Y624521D1*
X1066977Y631706D1*
X1064600Y634138D1*
X1059847Y636514D1*
X1055039D1*
X1050285Y634138D1*
X1047854Y631706D1*
X1045477Y624521D1*
Y603021D1*
X1095717D1*
X1069409Y619768D2*
X1095717Y636514D1*
X1057470Y654385D2*
X1055094D1*
X1050285Y656762D1*
X1047909Y659138D1*
X1045532Y663947D1*
Y673509D1*
X1047909Y678262D1*
X1050285Y680638D1*
X1055094Y683070D1*
X1059847D1*
X1064656Y680638D1*
X1071785Y675885D1*
X1095717Y651953D1*
Y685447D1*
X1045532Y705694D2*
Y731947D1*
X1064656Y717633D1*
X1064655Y724818D1*
X1067032Y729571D1*
X1069409Y731947D1*
X1076594Y734379D1*
X1081347D1*
X1088532Y731947D1*
X1093340Y727194D1*
X1095717Y720009D1*
Y712824D1*
X1093340Y705694D1*
X1090909Y703318D1*
X1086155Y700886D1*
X1369409Y601833D2*
Y623332D1*
X1366977Y630517D1*
X1364600Y632949D1*
X1359847Y635326D1*
X1355039D1*
X1350285Y632949D1*
X1347854Y630517D1*
X1345477Y623332D1*
Y601833D1*
X1395717D1*
X1369409Y618579D2*
X1395717Y635326D1*
X1357470Y653197D2*
X1355094D1*
X1350285Y655574D1*
X1347909Y657950D1*
X1345532Y662759D1*
Y672320D1*
X1347909Y677073D1*
X1350285Y679450D1*
X1355094Y681882D1*
X1359847D1*
X1364656Y679450D1*
X1371785Y674697D1*
X1395717Y650765D1*
Y684258D1*
Y723629D2*
X1345532D1*
X1378970Y699698D1*
Y735568D1*
X2369409Y603021D2*
Y624521D1*
X2366977Y631706D1*
X2364600Y634138D1*
X2359847Y636514D1*
X2355039D1*
X2350285Y634138D1*
X2347854Y631706D1*
X2345477Y624521D1*
Y603021D1*
X2395717D1*
X2369409Y619768D2*
X2395717Y636514D1*
X2357470Y654385D2*
X2355094D1*
X2350285Y656762D1*
X2347909Y659138D1*
X2345532Y663947D1*
Y673509D1*
X2347909Y678262D1*
X2350285Y680638D1*
X2355094Y683070D1*
X2359847D1*
X2364656Y680638D1*
X2371785Y675885D1*
X2395717Y651953D1*
Y685447D1*
X2345532Y729571D2*
Y705694D1*
X2367032Y703318D1*
X2364656Y705694D1*
X2362224Y712879D1*
Y720009D1*
X2364655Y727194D1*
X2369409Y732003D1*
X2376594Y734379D1*
X2381347D1*
X2388532Y732003D1*
X2393340Y727194D1*
X2395717Y720009D1*
Y712879D1*
X2393340Y705694D1*
X2390909Y703318D1*
X2386155Y700886D1*
X2494409Y604237D2*
Y625737D1*
X2491977Y632922D1*
X2489600Y635354D1*
X2484847Y637730D1*
X2480039D1*
X2475285Y635354D1*
X2472854Y632922D1*
X2470477Y625737D1*
Y604237D1*
X2520717D1*
X2494409Y620983D2*
X2520717Y637730D1*
X2482470Y655601D2*
X2480094D1*
X2475285Y657978D1*
X2472909Y660354D1*
X2470532Y665163D1*
Y674724D1*
X2472909Y679478D1*
X2475285Y681854D1*
X2480094Y684286D1*
X2484847D1*
X2489656Y681854D1*
X2496785Y677101D1*
X2520717Y653169D1*
Y686663D1*
X2477662Y730787D2*
X2472909Y728410D1*
X2470532Y721225D1*
Y716472D1*
X2472909Y709287D1*
X2480094Y704478D1*
X2492032Y702102D1*
X2503970D1*
X2513532Y704478D1*
X2518340Y709287D1*
X2520717Y716472D1*
Y718849D1*
X2518340Y725978D1*
X2513532Y730787D1*
X2506347Y733163D1*
X2503970D1*
X2496785Y730787D1*
X2492032Y725978D1*
X2489656Y718849D1*
Y716472D1*
X2492032Y709287D1*
X2496785Y704478D1*
X2503970Y702102D1*
X2794409Y603021D2*
Y624521D1*
X2791977Y631706D1*
X2789600Y634138D1*
X2784847Y636514D1*
X2780039D1*
X2775285Y634138D1*
X2772854Y631706D1*
X2770477Y624521D1*
Y603021D1*
X2820717D1*
X2794409Y619768D2*
X2820717Y636514D1*
X2782470Y654385D2*
X2780094D1*
X2775285Y656762D1*
X2772909Y659138D1*
X2770532Y663947D1*
Y673509D1*
X2772909Y678262D1*
X2775285Y680638D1*
X2780094Y683070D1*
X2784847D1*
X2789656Y680638D1*
X2796785Y675885D1*
X2820717Y651953D1*
Y685447D1*
Y710448D2*
X2770532Y734379D1*
Y700886D1*
X2944409Y603049D2*
Y624548D1*
X2941977Y631733D1*
X2939600Y634165D1*
X2934847Y636542D1*
X2930039D1*
X2925285Y634165D1*
X2922854Y631733D1*
X2920477Y624548D1*
Y603049D1*
X2970717D1*
X2944409Y619795D2*
X2970717Y636542D1*
X2932470Y654413D2*
X2930094D1*
X2925285Y656789D1*
X2922909Y659166D1*
X2920532Y663975D1*
Y673536D1*
X2922909Y678289D1*
X2925285Y680666D1*
X2930094Y683098D1*
X2934847D1*
X2939656Y680666D1*
X2946785Y675913D1*
X2970717Y651981D1*
Y685474D1*
X2920532Y712852D2*
X2922909Y705722D1*
X2927662Y703290D1*
X2932470D1*
X2937224Y705722D1*
X2939656Y710475D1*
X2942032Y720037D1*
X2944409Y727222D1*
X2949217Y731975D1*
X2953970Y734352D1*
X2961155D1*
X2965909Y731975D1*
X2968340Y729598D1*
X2970717Y722413D1*
Y712852D1*
X2968340Y705722D1*
X2965909Y703290D1*
X2961155Y700914D1*
X2953970D1*
X2949217Y703290D1*
X2944409Y708099D1*
X2942032Y715228D1*
X2939655Y724790D1*
X2937224Y729598D1*
X2932470Y731975D1*
X2927662D1*
X2922909Y729598D1*
X2920532Y722413D1*
Y712852D1*
X3094409Y604209D2*
Y625709D1*
X3091977Y632894D1*
X3089600Y635326D1*
X3084847Y637702D1*
X3080039D1*
X3075285Y635326D1*
X3072854Y632894D1*
X3070477Y625709D1*
Y604209D1*
X3120717D1*
X3094409Y620956D2*
X3120717Y637702D1*
X3082470Y655574D2*
X3080094D1*
X3075285Y657950D1*
X3072909Y660327D1*
X3070532Y665135D1*
Y674697D1*
X3072909Y679450D1*
X3075285Y681827D1*
X3080094Y684258D1*
X3084847D1*
X3089656Y681827D1*
X3096785Y677073D1*
X3120717Y653142D1*
Y686635D1*
X3087224Y733191D2*
X3094409Y730759D1*
X3099217Y726006D1*
X3101594Y718821D1*
Y716444D1*
X3099217Y709259D1*
X3094409Y704506D1*
X3087224Y702074D1*
X3084847D1*
X3077662Y704506D1*
X3072909Y709259D1*
X3070532Y716444D1*
Y718821D1*
X3072909Y726006D1*
X3077662Y730759D1*
X3087224Y733191D1*
X3099217D1*
X3111155Y730759D1*
X3118340Y726006D1*
X3120717Y718821D1*
Y714068D1*
X3118340Y706883D1*
X3113532Y704506D1*
X1955517Y3210230D2*
Y3159990D1*
X1938771Y3210230D2*
X1972264D1*
X1987703Y3183922D2*
X2009258D1*
X2016388Y3186298D1*
X2018820Y3188730D1*
X2021197Y3193483D1*
Y3200669D1*
X2018820Y3205422D1*
X2016388Y3207854D1*
X2009258Y3210230D1*
X1987703D1*
Y3159990D1*
X2036636Y3200613D2*
X2041444Y3203045D1*
X2048629Y3210175D1*
Y3159990D1*
X2269767Y3210230D2*
Y3159990D1*
X2253021Y3210230D2*
X2286514D1*
X2301953Y3183922D2*
X2323508D1*
X2330638Y3186298D1*
X2333070Y3188730D1*
X2335447Y3193483D1*
Y3200669D1*
X2333070Y3205422D1*
X2330638Y3207854D1*
X2323508Y3210230D1*
X2301953D1*
Y3159990D1*
X2353318Y3198237D2*
Y3200613D1*
X2355694Y3205422D1*
X2358071Y3207798D1*
X2362879Y3210175D1*
X2372441D1*
X2377194Y3207798D1*
X2379571Y3205422D1*
X2382003Y3200613D1*
Y3195860D1*
X2379571Y3191052D1*
X2374818Y3183922D1*
X2350886Y3159990D1*
X2384379D1*
X2044767Y2610230D2*
Y2559990D1*
X2028021Y2610230D2*
X2061514D1*
X2076953Y2583922D2*
X2098508D1*
X2105638Y2586298D1*
X2108070Y2588730D1*
X2110447Y2593483D1*
Y2600669D1*
X2108070Y2605422D1*
X2105638Y2607854D1*
X2098508Y2610230D1*
X2076953D1*
Y2559990D1*
X2130694Y2610175D2*
X2156947D1*
X2142633Y2591052D1*
X2149818D1*
X2154571Y2588675D1*
X2156947Y2586298D1*
X2159379Y2579113D1*
Y2574360D1*
X2156947Y2567175D1*
X2152194Y2562367D1*
X2145009Y2559990D1*
X2137824D1*
X2130694Y2562367D1*
X2128318Y2564799D1*
X2125886Y2569552D1*
X2368579Y2610230D2*
Y2559990D1*
X2351832Y2610230D2*
X2385326D1*
X2400765Y2583922D2*
X2422320D1*
X2429450Y2586298D1*
X2431882Y2588730D1*
X2434258Y2593483D1*
Y2600669D1*
X2431882Y2605422D1*
X2429450Y2607854D1*
X2422320Y2610230D1*
X2400765D1*
Y2559990D1*
X2473629D2*
Y2610175D1*
X2449698Y2576737D1*
X2485568D1*
X494767Y1766480D2*
Y1716240D1*
X478021Y1766480D2*
X511514D1*
X526953Y1740171D2*
X548508D1*
X555638Y1742548D1*
X558070Y1744980D1*
X560447Y1749733D1*
Y1756918D1*
X558070Y1761671D1*
X555638Y1764103D1*
X548508Y1766480D1*
X526953D1*
Y1716240D1*
X604571Y1766424D2*
X580694D1*
X578318Y1744924D1*
X580694Y1747301D1*
X587879Y1749733D1*
X595009D1*
X602194Y1747301D1*
X607003Y1742548D1*
X609379Y1735363D1*
Y1730610D1*
X607003Y1723425D1*
X602194Y1718616D1*
X595009Y1716240D1*
X587879D1*
X580694Y1718616D1*
X578318Y1721048D1*
X575886Y1725801D1*
X2045983Y1860230D2*
Y1809990D1*
X2029237Y1860230D2*
X2062730D1*
X2078169Y1833922D2*
X2099724D1*
X2106854Y1836298D1*
X2109286Y1838730D1*
X2111663Y1843483D1*
Y1850669D1*
X2109286Y1855422D1*
X2106854Y1857854D1*
X2099724Y1860230D1*
X2078169D1*
Y1809990D1*
X2155787Y1853045D2*
X2153410Y1857798D1*
X2146225Y1860175D1*
X2141472D1*
X2134287Y1857798D1*
X2129478Y1850613D1*
X2127102Y1838675D1*
Y1826737D1*
X2129478Y1817175D1*
X2134287Y1812367D1*
X2141472Y1809990D1*
X2143849D1*
X2150978Y1812367D1*
X2155787Y1817175D1*
X2158163Y1824360D1*
Y1826737D1*
X2155787Y1833922D1*
X2150978Y1838675D1*
X2143849Y1841052D1*
X2141472D1*
X2134287Y1838675D1*
X2129478Y1833922D1*
X2127102Y1826737D1*
X494767Y1541480D2*
Y1491240D1*
X478021Y1541480D2*
X511514D1*
X526953Y1515171D2*
X548508D1*
X555638Y1517548D1*
X558070Y1519980D1*
X560447Y1524733D1*
Y1531918D1*
X558070Y1536671D1*
X555638Y1539103D1*
X548508Y1541480D1*
X526953D1*
Y1491240D1*
X585448D2*
X609379Y1541424D1*
X575886D1*
X494795Y1316480D2*
Y1266240D1*
X478048Y1316480D2*
X511542D1*
X526981Y1290171D2*
X548536D1*
X555666Y1292548D1*
X558098Y1294980D1*
X560474Y1299733D1*
Y1306918D1*
X558098Y1311671D1*
X555666Y1314103D1*
X548536Y1316480D1*
X526981D1*
Y1266240D1*
X587852Y1316424D2*
X580722Y1314048D1*
X578290Y1309294D1*
Y1304486D1*
X580722Y1299733D1*
X585475Y1297301D1*
X595037Y1294924D1*
X602222Y1292548D1*
X606975Y1287739D1*
X609352Y1282986D1*
Y1275801D1*
X606975Y1271048D1*
X604598Y1268616D1*
X597413Y1266240D1*
X587852D1*
X580722Y1268616D1*
X578290Y1271048D1*
X575914Y1275801D1*
Y1282986D1*
X578290Y1287739D1*
X583099Y1292548D1*
X590228Y1294924D1*
X599790Y1297301D1*
X604598Y1299733D1*
X606975Y1304486D1*
Y1309294D1*
X604598Y1314048D1*
X597413Y1316424D1*
X587852D1*
X495956Y1091480D2*
Y1041240D1*
X479209Y1091480D2*
X512702D1*
X528142Y1065171D2*
X549697D1*
X556827Y1067548D1*
X559258Y1069980D1*
X561635Y1074733D1*
Y1081918D1*
X559258Y1086671D1*
X556827Y1089103D1*
X549697Y1091480D1*
X528142D1*
Y1041240D1*
X608191Y1074733D2*
X605759Y1067548D1*
X601006Y1062739D1*
X593821Y1060363D1*
X591444D1*
X584259Y1062739D1*
X579506Y1067548D1*
X577074Y1074733D1*
Y1077109D1*
X579506Y1084294D1*
X584259Y1089048D1*
X591444Y1091424D1*
X593821D1*
X601006Y1089048D1*
X605759Y1084294D1*
X608191Y1074733D1*
Y1062739D1*
X605759Y1050801D1*
X601006Y1043616D1*
X593821Y1041240D1*
X589068D1*
X581883Y1043616D1*
X579506Y1048425D1*
X2643551Y1066480D2*
Y1016240D1*
X2626804Y1066480D2*
X2660298D1*
X2675737Y1040171D2*
X2697292D1*
X2704422Y1042548D1*
X2706854Y1044980D1*
X2709230Y1049733D1*
Y1056918D1*
X2706854Y1061671D1*
X2704422Y1064103D1*
X2697292Y1066480D1*
X2675737D1*
Y1016240D1*
X2724670Y1056863D2*
X2729478Y1059294D1*
X2736663Y1066424D1*
Y1016240D1*
X2766472Y1066424D2*
X2759287Y1064048D1*
X2754479Y1056863D1*
X2752102Y1044924D1*
Y1037739D1*
X2754479Y1025801D1*
X2759287Y1018616D1*
X2766472Y1016240D1*
X2771226D1*
X2778411Y1018616D1*
X2783164Y1025801D1*
X2785596Y1037739D1*
Y1044924D1*
X2783164Y1056863D1*
X2778411Y1064048D1*
X2771226Y1066424D1*
X2766472D1*
X2783164Y1056863D2*
X2754479Y1025801D1*
X3041801Y1066481D2*
Y1016241D1*
X3025054Y1066481D2*
X3058548D1*
X3073987Y1040173D2*
X3095542D1*
X3102672Y1042549D1*
X3105104Y1044981D1*
X3107480Y1049734D1*
Y1056919D1*
X3105104Y1061672D1*
X3102672Y1064104D1*
X3095542Y1066481D1*
X3073987D1*
Y1016241D1*
X3122919Y1056864D2*
X3127728Y1059296D1*
X3134913Y1066426D1*
Y1016241D1*
X3150352Y1056864D2*
X3155161Y1059296D1*
X3162346Y1066426D1*
Y1016241D1*
X474800Y866480D2*
Y816240D1*
X458054Y866480D2*
X491547D1*
X506986Y840171D2*
X528541D1*
X535671Y842548D1*
X538103Y844980D1*
X540480Y849733D1*
Y856918D1*
X538103Y861671D1*
X535671Y864103D1*
X528541Y866480D1*
X506986D1*
Y816240D1*
X555919Y856863D2*
X560727Y859294D1*
X567912Y866424D1*
Y816240D1*
X585783Y854486D2*
Y856863D1*
X588160Y861671D1*
X590537Y864048D1*
X595345Y866424D1*
X604907D1*
X609660Y864048D1*
X612037Y861671D1*
X614468Y856863D1*
Y852109D1*
X612037Y847301D1*
X607283Y840171D1*
X583352Y816240D1*
X616845D1*
X2913237Y3229817D2*
Y3193947D1*
X2915614Y3186762D1*
X2920422Y3182009D1*
X2927607Y3179577D1*
X2932360D1*
X2939545Y3182009D1*
X2944354Y3186762D1*
X2946730Y3193947D1*
Y3229817D1*
X2962170Y3220200D2*
X2966978Y3222632D1*
X2974163Y3229762D1*
Y3179577D1*
X2052487Y2888773D2*
Y2852904D1*
X2054864Y2845719D1*
X2059672Y2840965D1*
X2066857Y2838533D1*
X2071610D1*
X2078795Y2840965D1*
X2083604Y2845719D1*
X2085980Y2852904D1*
Y2888773D1*
X2103851Y2876780D2*
Y2879157D1*
X2106228Y2883965D1*
X2108605Y2886342D1*
X2113413Y2888718D1*
X2122975D1*
X2127728Y2886342D1*
X2130105Y2883965D1*
X2132536Y2879157D1*
Y2874403D1*
X2130105Y2869595D1*
X2125351Y2862465D1*
X2101420Y2838533D1*
X2134913D1*
X1302487Y2163773D2*
Y2127904D1*
X1304864Y2120719D1*
X1309672Y2115965D1*
X1316857Y2113533D1*
X1321610D1*
X1328795Y2115965D1*
X1333604Y2120719D1*
X1335980Y2127904D1*
Y2163773D1*
X1356228Y2163718D2*
X1382481D1*
X1368166Y2144595D1*
X1375351D1*
X1380105Y2142218D1*
X1382481Y2139842D1*
X1384913Y2132657D1*
Y2127904D1*
X1382481Y2120719D1*
X1377728Y2115910D1*
X1370543Y2113533D1*
X1363358D1*
X1356228Y2115910D1*
X1353851Y2118342D1*
X1351420Y2123095D1*
X1301299Y1602750D2*
Y1566880D1*
X1303675Y1559695D1*
X1308484Y1554942D1*
X1315669Y1552510D1*
X1320422D1*
X1327607Y1554942D1*
X1332415Y1559695D1*
X1334792Y1566880D1*
Y1602750D1*
X1374163Y1552510D2*
Y1602695D1*
X1350231Y1569257D1*
X1386101D1*
X1752487Y738773D2*
Y702904D1*
X1754864Y695719D1*
X1759672Y690965D1*
X1766857Y688533D1*
X1771610D1*
X1778795Y690965D1*
X1783604Y695719D1*
X1785980Y702904D1*
Y738773D1*
X1830105Y738718D2*
X1806228D1*
X1803851Y717218D1*
X1806228Y719595D1*
X1813413Y722027D1*
X1820543D1*
X1827728Y719595D1*
X1832536Y714842D1*
X1834913Y707657D1*
Y702904D1*
X1832536Y695719D1*
X1827728Y690910D1*
X1820543Y688533D1*
X1813413D1*
X1806228Y690910D1*
X1803851Y693342D1*
X1801420Y698095D1*
X3337407Y2770930D2*
D64*
X3377599D1*
Y2788174D1*
X3375654Y2793922D1*
X3373753Y2795823D1*
X3369950Y2797724D1*
X3364202D1*
X3360355Y2795823D1*
X3358454Y2793922D1*
X3356553Y2788174D1*
X3354607Y2793922D1*
X3352706Y2795823D1*
X3348903Y2797724D1*
X3345057D1*
X3341254Y2795823D1*
X3339309Y2793922D1*
X3337407Y2788174D1*
Y2770930D1*
X3356553D2*
Y2788174D1*
X3337407Y2821572D2*
X3339309Y2817725D1*
X3343155Y2813922D1*
X3346958Y2811977D1*
X3352706Y2810076D1*
X3362301D1*
X3368005Y2811977D1*
X3371851Y2813922D1*
X3375654Y2817725D1*
X3377599Y2821572D1*
Y2829221D1*
X3375654Y2833024D1*
X3371851Y2836870D1*
X3368005Y2838772D1*
X3362301Y2840673D1*
X3352706D1*
X3346958Y2838772D1*
X3343155Y2836870D1*
X3339309Y2833024D1*
X3337407Y2829221D1*
Y2821572D1*
Y2864520D2*
X3339309Y2860674D1*
X3343155Y2856871D1*
X3346958Y2854926D1*
X3352706Y2853024D1*
X3362301D1*
X3368005Y2854926D1*
X3371851Y2856871D1*
X3375654Y2860674D1*
X3377599Y2864520D1*
Y2872170D1*
X3375654Y2875972D1*
X3371851Y2879819D1*
X3368005Y2881720D1*
X3362301Y2883621D1*
X3352706D1*
X3346958Y2881720D1*
X3343155Y2879819D1*
X3339309Y2875972D1*
X3337407Y2872170D1*
Y2864520D1*
X3343155Y2922768D2*
X3339309Y2918965D1*
X3337407Y2913217D1*
Y2905568D1*
X3339309Y2899820D1*
X3343155Y2895973D1*
X3346958D1*
X3350805Y2897918D1*
X3352706Y2899820D1*
X3354607Y2903622D1*
X3358454Y2915118D1*
X3360355Y2918965D1*
X3362301Y2920866D1*
X3366103Y2922768D1*
X3371851D1*
X3375654Y2918965D1*
X3377599Y2913217D1*
Y2905568D1*
X3375654Y2899820D1*
X3371851Y2895973D1*
X3337407Y2948516D2*
X3377599D1*
X3337407Y2935119D2*
Y2961914D1*
X3338813Y2330598D2*
X3379005D1*
Y2343995D1*
X3377059Y2349743D1*
X3373257Y2353590D1*
X3369410Y2355491D1*
X3363706Y2357392D1*
X3354112D1*
X3348364Y2355491D1*
X3344561Y2353590D1*
X3340714Y2349743D1*
X3338813Y2343995D1*
Y2330598D1*
Y2394593D2*
Y2369744D1*
X3379005D1*
Y2394593D1*
X3357958Y2369744D2*
Y2385042D1*
X3338813Y2406944D2*
X3379005D1*
Y2429892D1*
Y2472885D2*
X3338813Y2457542D1*
X3379005Y2442244D1*
X3365608Y2447992D2*
Y2467137D1*
X3338813Y2485236D2*
X3357958Y2500535D1*
X3379005D1*
X3338813Y2515834D2*
X3357958Y2500535D1*
X3360682Y1754775D2*
Y1772019D1*
X3358781Y1777723D1*
X3356836Y1779668D1*
X3353033Y1781569D1*
X3347285D1*
X3343483Y1779668D1*
X3341537Y1777723D1*
X3339636Y1772019D1*
Y1754775D1*
X3379828D1*
X3339636Y1793921D2*
X3379828D1*
X3339636Y1820716D2*
X3379828Y1820715D1*
X3358781Y1793921D2*
Y1820715D1*
X3339636Y1844563D2*
X3341537Y1840716D1*
X3345384Y1836914D1*
X3349186Y1834968D1*
X3354934Y1833067D1*
X3364529D1*
X3370233Y1834968D1*
X3374080Y1836914D1*
X3377882Y1840716D1*
X3379828Y1844563D1*
Y1852212D1*
X3377882Y1856015D1*
X3374080Y1859862D1*
X3370233Y1861763D1*
X3364529Y1863664D1*
X3354934D1*
X3349186Y1861763D1*
X3345384Y1859862D1*
X3341537Y1856015D1*
X3339636Y1852212D1*
Y1844563D1*
Y1902810D2*
X3379828D1*
X3339636Y1876015D1*
X3379828D1*
X3339636Y1940011D2*
Y1915162D1*
X3379828D1*
Y1940011D1*
X3358781Y1915162D2*
Y1930460D1*
X3345384Y1979157D2*
X3341537Y1975354D1*
X3339636Y1969606D1*
Y1961957D1*
X3341537Y1956209D1*
X3345384Y1952362D1*
X3349186D1*
X3353033Y1954308D1*
X3354934Y1956209D1*
X3356836Y1960011D1*
X3360682Y1971507D1*
X3362584Y1975354D1*
X3364529Y1977256D1*
X3368332Y1979157D1*
X3374080D1*
X3377882Y1975354D1*
X3379828Y1969606D1*
Y1961957D1*
X3377882Y1956209D1*
X3374080Y1952362D1*
X3335264Y1321645D2*
X3375456Y1336943D1*
X3335264Y1352242D1*
Y1376090D2*
X3337166Y1372243D1*
X3341012Y1368440D1*
X3344815Y1366495D1*
X3350563Y1364593D1*
X3360158D1*
X3365862Y1366495D1*
X3369708Y1368440D1*
X3373511Y1372243D1*
X3375456Y1376089D1*
Y1383739D1*
X3373511Y1387541D1*
X3369708Y1391388D1*
X3365862Y1393289D1*
X3360158Y1395191D1*
X3350563D1*
X3344815Y1393289D1*
X3341012Y1391388D1*
X3337166Y1387541D1*
X3335264Y1383739D1*
Y1376090D1*
Y1407542D2*
X3375456D1*
Y1430490D1*
X3335264Y1442841D2*
X3363960D1*
X3369708Y1444743D1*
X3373511Y1448589D1*
X3375456Y1454337D1*
Y1458140D1*
X3373511Y1463888D1*
X3369708Y1467735D1*
X3363960Y1469636D1*
X3335264D1*
X3375456Y1512585D2*
X3335264D1*
X3375456Y1497286D1*
X3335264Y1481987D1*
X3375456D1*
X3335264Y1549785D2*
Y1524936D1*
X3375456D1*
Y1549785D1*
X3354410Y1524936D2*
Y1540235D1*
X3340182Y755126D2*
X3380374D1*
X3340182Y741729D2*
Y768524D1*
Y780875D2*
X3380374D1*
X3340182Y807670D2*
X3380374D1*
X3359327Y780875D2*
Y807670D1*
Y820021D2*
Y837221D1*
X3357382Y842969D1*
X3355480Y844914D1*
X3351678Y846816D1*
X3347831D1*
X3344028Y844914D1*
X3342083Y842969D1*
X3340182Y837221D1*
Y820021D1*
X3380374D1*
X3359327Y833418D2*
X3380374Y846816D1*
X3340182Y884016D2*
Y859167D1*
X3380374D1*
Y884016D1*
X3359327Y859167D2*
Y874466D1*
X3345930Y923162D2*
X3342083Y919360D1*
X3340182Y913612D1*
Y905962D1*
X3342083Y900214D1*
X3345930Y896368D1*
X3349732D1*
X3353579Y898313D1*
X3355480Y900214D1*
X3357382Y904017D1*
X3361228Y915513D1*
X3363130Y919360D1*
X3365075Y921261D1*
X3368878Y923162D1*
X3374626D1*
X3378428Y919360D1*
X3380374Y913612D1*
Y905962D1*
X3378428Y900214D1*
X3374626Y896368D1*
X3340182Y935514D2*
X3380374D1*
X3340182Y962308D2*
X3380374D1*
X3359327Y935514D2*
Y962308D1*
X3340182Y986156D2*
X3342083Y982309D1*
X3345930Y978506D1*
X3349732Y976561D1*
X3355480Y974660D1*
X3365075D1*
X3370779Y976561D1*
X3374626Y978506D1*
X3378428Y982309D1*
X3380374Y986156D1*
Y993805D1*
X3378428Y997608D1*
X3374626Y1001454D1*
X3370779Y1003356D1*
X3365075Y1005257D1*
X3355480D1*
X3349732Y1003356D1*
X3345930Y1001454D1*
X3342083Y997608D1*
X3340182Y993805D1*
Y986156D1*
Y1017608D2*
X3380374D1*
Y1040556D1*
X3340182Y1052908D2*
X3380374D1*
Y1066305D1*
X3378428Y1072053D1*
X3374626Y1075900D1*
X3370779Y1077801D1*
X3365075Y1079702D1*
X3355480D1*
X3349732Y1077801D1*
X3345930Y1075900D1*
X3342083Y1072053D1*
X3340182Y1066305D1*
Y1052908D1*
X497396Y2898670D2*
X495495Y2902473D1*
X491648Y2906320D1*
X487845Y2908221D1*
X480196D1*
X476349Y2906320D1*
X472547Y2902473D1*
X470601Y2898670D1*
X468700Y2892922D1*
Y2883328D1*
X470601Y2877624D1*
X472547Y2873777D1*
X476349Y2869974D1*
X480196Y2868029D1*
X487845D1*
X491648Y2869974D1*
X495495Y2873777D1*
X497396Y2877624D1*
X521243Y2908221D2*
X517397Y2906320D1*
X513594Y2902473D1*
X511649Y2898670D1*
X509747Y2892922D1*
Y2883328D1*
X511649Y2877624D1*
X513594Y2873777D1*
X517397Y2869974D1*
X521243Y2868029D1*
X528893D1*
X532695Y2869974D1*
X536542Y2873777D1*
X538443Y2877624D1*
X540344Y2883328D1*
Y2892922D1*
X538443Y2898670D1*
X536542Y2902473D1*
X532695Y2906320D1*
X528893Y2908221D1*
X521243D1*
X552696D2*
Y2868029D1*
X565047Y2908221D2*
Y2868029D1*
X587995D1*
X1579881Y3202028D2*
X1620073D1*
Y3219272D1*
X1618128Y3225020D1*
X1616226Y3226921D1*
X1612424Y3228823D1*
X1606676D1*
X1602829Y3226921D1*
X1600928Y3225020D1*
X1599027Y3219272D1*
X1597081Y3225020D1*
X1595180Y3226921D1*
X1591377Y3228823D1*
X1587530D1*
X1583728Y3226922D1*
X1581782Y3225020D1*
X1579881Y3219272D1*
Y3202028D1*
X1599026D2*
X1599027Y3219272D1*
X1620073Y3271816D2*
X1579881Y3256473D1*
X1620073Y3241174D1*
X1606676Y3246922D2*
Y3266067D1*
X1579881Y3297564D2*
X1620073D1*
X1579881Y3284167D2*
Y3310962D1*
Y3336710D2*
X1620073D1*
X1579881Y3323313D2*
Y3350108D1*
X2850573Y2170913D2*
D65*
X2790285Y2147899D1*
X2850573Y2124951D1*
X2830477Y2133573D2*
Y2162291D1*
X2819003Y2189440D2*
Y2215240D1*
X2816085Y2223862D1*
X2813233Y2226781D1*
X2807529Y2229632D1*
X2801759D1*
X2796056Y2226781D1*
X2793137Y2223862D1*
X2790285Y2215240D1*
Y2189441D1*
X2850573Y2189440D1*
X2819003Y2209536D2*
X2850573Y2229632D1*
X2790285Y2248160D2*
X2850573D1*
Y2268256D1*
X2847655Y2276878D1*
X2841951Y2282648D1*
X2836181Y2285500D1*
X2827625Y2288352D1*
X2813233D1*
X2804611Y2285500D1*
X2798907Y2282648D1*
X2793137Y2276878D1*
X2790285Y2268256D1*
Y2248160D1*
Y2306879D2*
X2833329D1*
X2841951Y2309731D1*
X2847655Y2315501D1*
X2850573Y2324123D1*
Y2329827D1*
X2847655Y2338449D1*
X2841951Y2344219D1*
X2833329Y2347071D1*
X2790285D1*
Y2365598D2*
X2850573D1*
X2790285Y2424317D2*
X2850573D1*
X2790285Y2384125D1*
X2850573D1*
X2790285Y2460088D2*
X2793137Y2454318D1*
X2798907Y2448614D1*
X2804611Y2445696D1*
X2813233Y2442844D1*
X2827625D1*
X2836181Y2445696D1*
X2841951Y2448614D1*
X2847655Y2454318D1*
X2850573Y2460088D1*
Y2471562D1*
X2847655Y2477266D1*
X2841951Y2483036D1*
X2836181Y2485888D1*
X2827625Y2488740D1*
X2813233D1*
X2804611Y2485888D1*
X2798907Y2483036D1*
X2793137Y2477266D1*
X2790285Y2471562D1*
Y2460088D1*
Y2605780D2*
X2850573D1*
X2790285Y2565588D1*
X2850573D1*
Y2670269D2*
X2790285Y2647255D1*
X2850573Y2624307D1*
X2830477Y2632929D2*
Y2661647D1*
X2790285Y2728988D2*
X2850573D1*
X2790285Y2688796D1*
X2850573D1*
X2790285Y2764760D2*
X2793137Y2758989D1*
X2798907Y2753286D1*
X2804611Y2750367D1*
X2813233Y2747515D1*
X2827625D1*
X2836181Y2750367D1*
X2841951Y2753286D1*
X2847655Y2758989D1*
X2850573Y2764760D1*
Y2776234D1*
X2847655Y2781937D1*
X2841951Y2787707D1*
X2836181Y2790559D1*
X2827625Y2793411D1*
X2813233D1*
X2804611Y2790559D1*
X2798907Y2787707D1*
X2793137Y2781937D1*
X2790285Y2776234D1*
Y2764760D1*
X2957183Y2078551D2*
Y2104417D1*
X2954332Y2112973D1*
X2951413Y2115891D1*
X2945709Y2118743D1*
X2937087D1*
X2931384Y2115891D1*
X2928465Y2112973D1*
X2925613Y2104417D1*
Y2078551D1*
X2985901D1*
X2925613Y2137270D2*
X2968657D1*
X2977279Y2140122D1*
X2982983Y2145892D1*
X2985901Y2154514D1*
Y2160218D1*
X2982983Y2168840D1*
X2977279Y2174610D1*
X2968657Y2177462D1*
X2925613D1*
Y2195989D2*
X2985901D1*
Y2230411D1*
X2934236Y2289130D2*
X2928465Y2283426D1*
X2925613Y2274804D1*
Y2263330D1*
X2928465Y2254708D1*
X2934236Y2248938D1*
X2939939D1*
X2945709Y2251856D1*
X2948561Y2254708D1*
X2951413Y2260412D1*
X2957183Y2277656D1*
X2960035Y2283426D1*
X2962954Y2286278D1*
X2968657Y2289130D1*
X2977279D1*
X2982983Y2283426D1*
X2985901Y2274804D1*
Y2263330D1*
X2982983Y2254708D1*
X2977279Y2248938D1*
X2925613Y2344931D2*
Y2307657D1*
X2985901D1*
Y2344931D1*
X2954332Y2307657D2*
X2954331Y2330605D1*
X2925613Y2421779D2*
X2985901D1*
X2925613Y2480498D2*
X2985901D1*
X2925613Y2440306D1*
X2985901D1*
X2925613Y2499025D2*
X2985901D1*
Y2519121D1*
X2982983Y2527743D1*
X2977279Y2533514D1*
X2971509Y2536366D1*
X2962954Y2539217D1*
X2948561D1*
X2939939Y2536366D1*
X2934235Y2533514D1*
X2928465Y2527743D1*
X2925613Y2519121D1*
Y2499025D1*
Y2557745D2*
X2968657D1*
X2977279Y2560596D1*
X2982983Y2566367D1*
X2985901Y2574989D1*
Y2580692D1*
X2982983Y2589314D1*
X2977279Y2595085D1*
X2968657Y2597937D1*
X2925613D1*
X2939939Y2659508D2*
X2934235Y2656656D1*
X2928465Y2650885D1*
X2925613Y2645182D1*
Y2633708D1*
X2928465Y2627938D1*
X2934235Y2622234D1*
X2939939Y2619316D1*
X2948561Y2616464D1*
X2962954D1*
X2971509Y2619316D1*
X2977279Y2622234D1*
X2982983Y2627938D1*
X2985901Y2633708D1*
Y2645182D1*
X2982983Y2650885D1*
X2977279Y2656656D1*
X2971509Y2659508D1*
X2925613Y2698131D2*
X2985901D1*
X2925613Y2678035D2*
Y2718227D1*
Y2736754D2*
X2985901D1*
X2925613Y2772525D2*
X2928465Y2766755D1*
X2934235Y2761051D1*
X2939939Y2758133D1*
X2948561Y2755281D1*
X2962954D1*
X2971509Y2758133D1*
X2977279Y2761051D1*
X2982983Y2766755D1*
X2985901Y2772525D1*
Y2783999D1*
X2982983Y2789703D1*
X2977279Y2795473D1*
X2971509Y2798325D1*
X2962954Y2801177D1*
X2948561D1*
X2939939Y2798325D1*
X2934235Y2795473D1*
X2928465Y2789703D1*
X2925613Y2783999D1*
Y2772525D1*
Y2859896D2*
X2985901D1*
X2925613Y2819704D1*
X2985901D1*
X3124552Y2110795D2*
X3064264D1*
X3124552Y2087847D1*
X3064264Y2064899D1*
X3124552D1*
X3064264Y2166595D2*
Y2129322D1*
X3124552D1*
Y2166595D1*
X3092982Y2129322D2*
Y2152270D1*
X3064264Y2205219D2*
X3124552Y2205218D1*
X3064264Y2185123D2*
Y2225315D1*
X3124552Y2289804D2*
X3064264Y2266790D1*
X3124552Y2243842D1*
X3104456Y2252464D2*
Y2281182D1*
X3064264Y2308331D2*
X3124552D1*
Y2342753D1*
X3064264Y2419601D2*
X3124552D1*
Y2439697D1*
X3121634Y2448319D1*
X3115930Y2454089D1*
X3110160Y2456941D1*
X3101604Y2459793D1*
X3087212D1*
X3078590Y2456941D1*
X3072886Y2454089D1*
X3067116Y2448319D1*
X3064264Y2439697D1*
Y2419601D1*
Y2515594D2*
Y2478320D1*
X3124552D1*
Y2515594D1*
X3092982Y2478320D2*
Y2501268D1*
X3064264Y2554217D2*
X3124552D1*
X3064264Y2534121D2*
Y2574313D1*
Y2630114D2*
Y2592840D1*
X3124552D1*
Y2630114D1*
X3092982Y2592840D2*
Y2615788D1*
X3078590Y2691685D2*
X3072886Y2688833D1*
X3067116Y2683063D1*
X3064264Y2677359D1*
Y2665885D1*
X3067116Y2660115D1*
X3072886Y2654411D1*
X3078590Y2651493D1*
X3087212Y2648641D1*
X3101604D1*
X3110160Y2651493D1*
X3115930Y2654411D1*
X3121634Y2660115D1*
X3124552Y2665885D1*
Y2677359D1*
X3121634Y2683063D1*
X3115930Y2688833D1*
X3110160Y2691685D1*
X3064264Y2730308D2*
X3124552D1*
X3064264Y2710212D2*
Y2750404D1*
Y2786175D2*
X3067116Y2780405D1*
X3072886Y2774701D1*
X3078590Y2771783D1*
X3087212Y2768931D1*
X3101604D1*
X3110160Y2771783D1*
X3115930Y2774701D1*
X3121634Y2780405D1*
X3124552Y2786175D1*
Y2797649D1*
X3121634Y2803353D1*
X3115930Y2809123D1*
X3110160Y2811975D1*
X3101604Y2814827D1*
X3087212D1*
X3078590Y2811975D1*
X3072886Y2809123D1*
X3067116Y2803353D1*
X3064264Y2797649D1*
Y2786175D1*
X3092982Y2833354D2*
Y2859154D1*
X3090064Y2867776D1*
X3087212Y2870694D1*
X3081508Y2873546D1*
X3075738D1*
X3070034Y2870694D1*
X3067116Y2867776D1*
X3064264Y2859154D1*
Y2833354D1*
X3124552D1*
X3092982Y2853450D2*
X3124552Y2873546D1*
X1884356Y3281868D2*
D64*
Y3247424D1*
X1867157Y3264624D2*
X1901601D1*
G04 BoardOutline*
X393700Y393700D2*
D11*
X3643700D1*
Y3393700D1*
X393700D1*
Y393700D1*
M02*
